<?xml version="1.0" standalone="no"?>
<!DOCTYPE svg PUBLIC "-//W3C//DTD SVG 20010904//EN"
 "http://www.w3.org/TR/2001/REC-SVG-20010904/DTD/svg10.dtd">
<svg version="1.0" xmlns="http://www.w3.org/2000/svg"
 width="700.000000pt" height="700.000000pt" viewBox="0 0 700.000000 700.000000"
 preserveAspectRatio="xMidYMid meet">
<metadata>
Created by potrace 1.14, written by Peter Selinger 2001-2017
</metadata>
<g transform="translate(0.000000,700.000000) scale(0.100000,-0.100000)"
fill="#000000" stroke="none">
<path d="M3457 6564 c-1 -1 -58 -4 -127 -8 -69 -3 -161 -11 -205 -17 -44 -6
-89 -12 -100 -14 -17 -2 -75 -13 -165 -30 -28 -5 -60 -13 -90 -20 -11 -3 -28
-7 -37 -9 -82 -20 -316 -97 -378 -126 -11 -5 -58 -25 -105 -45 -263 -113 -574
-314 -794 -515 -401 -365 -681 -790 -856 -1297 -37 -108 -91 -304 -104 -378
-25 -144 -40 -262 -52 -395 -5 -63 -5 -376 1 -430 2 -25 7 -72 10 -105 9 -91
29 -228 40 -265 2 -8 7 -28 10 -45 11 -63 62 -261 74 -290 5 -11 23 -61 39
-110 113 -336 363 -751 616 -1025 180 -193 355 -345 556 -479 627 -421 1365
-594 2115 -495 99 13 139 19 240 39 68 13 264 69 359 102 924 321 1645 1072
1927 2007 22 74 42 142 44 153 41 189 46 218 64 358 34 259 28 601 -13 850
-79 467 -231 854 -489 1240 -33 50 -63 92 -66 95 -3 3 -25 31 -49 63 -347 466
-906 858 -1495 1046 -90 29 -262 73 -332 86 -16 2 -41 7 -55 10 -82 16 -241
35 -347 41 -121 6 -233 10 -236 8z"/>
</g>
</svg>
