<svg width="65" height="64" viewBox="0 0 65 64" fill="none" xmlns="http://www.w3.org/2000/svg">
<g clip-path="url(#clip0_15_22)">
<path d="M63.4954 29.1467L35.5514 1.20533C33.9407 -0.402671 31.3327 -0.402671 29.7167 1.20533L23.9274 7.00533L31.2874 14.3653C33.0074 13.792 34.9647 14.1787 36.3247 15.5413C37.7007 16.9147 38.0794 18.896 37.4927 20.608L44.5807 27.7013C46.3007 27.1067 48.2794 27.4933 49.6474 28.8613C51.5701 30.7813 51.5701 33.8853 49.6474 35.8053C47.7301 37.7227 44.6314 37.7227 42.7141 35.8053C41.2767 34.3627 40.9167 32.24 41.6367 30.4827L34.9994 23.88V41.28C35.4687 41.5093 35.9114 41.8213 36.3007 42.208C38.2021 44.1307 38.2021 47.2293 36.3007 49.1413C34.3834 51.064 31.2634 51.064 29.3434 49.1413C27.4261 47.224 27.4261 44.1307 29.3434 42.2133C29.8287 41.7333 30.3754 41.3707 30.9567 41.1307V23.56C30.3781 23.3173 29.8261 22.968 29.3567 22.4907C27.9034 21.0373 27.5541 18.912 28.3007 17.1333L21.0687 9.86666L1.90605 29.016C0.306055 30.6293 0.306055 33.24 1.90605 34.8533L29.8527 62.792C31.4634 64.4027 34.0714 64.4027 35.6821 62.792L63.4954 34.9787C65.1087 33.3707 65.1087 30.76 63.4954 29.1467Z" fill="#E7ECF1"/>
</g>
<defs>
<clipPath id="clip0_15_22">
<rect width="64" height="64" fill="white" transform="translate(0.706055)"/>
</clipPath>
</defs>
</svg>
