<svg width="65" height="64" viewBox="0 0 65 64" fill="none" xmlns="http://www.w3.org/2000/svg">
<g clip-path="url(#clip0_16_152)">
<path d="M59.542 31.52C59.5388 29.6844 58.928 27.9014 57.805 26.4494C56.682 24.9974 55.1099 23.958 53.334 23.4933L61.302 0H21.8167L29.806 23.568C28.0813 24.0707 26.5659 25.1189 25.4871 26.5555C24.4083 27.992 23.8241 29.7395 23.822 31.536C23.822 34.3173 25.2087 36.7813 27.3234 38.2987C26.4727 39.4979 25.5043 40.6092 24.4327 41.616C22.4615 43.4934 20.1547 44.9833 17.6327 46.008C15.4087 44.5067 14.446 41.8587 15.3154 39.4853C17.2073 38.8977 18.8263 37.6522 19.8795 35.9743C20.9327 34.2964 21.3505 32.2969 21.0573 30.3377C20.764 28.3784 19.7792 26.5889 18.2808 25.2929C16.7825 23.9968 14.8698 23.28 12.8887 23.272C10.6879 23.2748 8.57809 24.1503 7.0219 25.7065C5.46571 27.2627 4.5902 29.3725 4.58738 31.5733C4.58738 33.8347 5.51271 35.9093 6.99538 37.392C6.86738 37.6507 6.73671 37.912 6.60605 38.1893C5.36605 40.7467 3.95805 43.6373 3.41938 46.88C2.34471 53.3653 4.10471 58.5707 8.35005 61.5173C10.6477 63.1378 13.3917 64.0053 16.2034 64C21.0754 64 26.022 61.5547 30.8034 59.1813C34.214 57.496 37.734 55.736 41.198 54.8827C42.478 54.568 43.8114 54.384 45.2194 54.1787C48.0727 53.7707 51.0194 53.3467 53.6674 51.8053C55.1796 50.9388 56.484 49.752 57.4891 48.3281C58.4943 46.9042 59.1758 45.2777 59.486 43.5627C59.95 40.912 59.486 38.2453 58.302 35.9093C59.0967 34.6293 59.542 33.1333 59.542 31.52ZM55.9287 31.52C55.9287 34.0933 53.8354 36.1867 51.262 36.1867C50.293 36.184 49.3487 35.8802 48.5599 35.3173C47.771 34.7544 47.1766 33.9603 46.8589 33.0448C46.5411 32.1293 46.5157 31.1377 46.7862 30.2072C47.0567 29.2766 47.6097 28.4532 48.3687 27.8507L48.3874 27.832C48.5367 27.72 48.702 27.608 48.8674 27.4987C48.8674 27.4987 48.8887 27.4987 48.8887 27.48C48.9634 27.4427 49.0354 27.3867 49.11 27.3467C49.1287 27.3467 49.1474 27.3307 49.166 27.3307C49.2407 27.2933 49.334 27.256 49.4247 27.2187C49.518 27.1813 49.6114 27.1467 49.686 27.1093C49.7047 27.1093 49.7207 27.0907 49.7394 27.0907C49.814 27.072 49.8887 27.0347 49.9634 27.016C49.982 27.016 50.0167 26.9973 50.038 26.9973C50.1287 26.9787 50.2034 26.96 50.2967 26.944H50.3154L50.5927 26.8853C50.6114 26.8853 50.646 26.8853 50.6674 26.8667C50.742 26.8667 50.814 26.848 50.8887 26.848H50.982C51.0754 26.848 51.1687 26.8293 51.278 26.8293H51.518C51.5927 26.8293 51.6514 26.8293 51.7234 26.848H51.7607C51.9074 26.8667 52.0567 26.8853 52.206 26.9227C53.2581 27.1481 54.2012 27.7269 54.8785 28.5628C55.5558 29.3988 55.9264 30.4441 55.9287 31.52ZM26.9874 3.70667H56.134L49.4434 23.44C49.166 23.4933 48.8887 23.5867 48.6114 23.68L41.5714 9.32L34.51 23.5867C34.2327 23.496 33.934 23.44 33.638 23.384L26.9874 3.70667ZM40.2354 29.9067C39.8945 28.1962 39.0185 26.6385 37.734 25.4587L41.5687 17.7147L45.4407 25.6267C44.294 26.7733 43.4594 28.24 43.126 29.9067H40.2354ZM30.9527 26.9787C31.0434 26.96 31.118 26.9413 31.2114 26.9253H31.2647C31.342 26.904 31.414 26.904 31.4887 26.8853H31.5634C31.638 26.8853 31.694 26.8667 31.766 26.8667H32.4887C32.5634 26.8667 32.6194 26.8853 32.6754 26.8853C32.7127 26.8853 32.7287 26.8853 32.7687 26.904C32.8407 26.9227 32.8967 26.9227 32.9714 26.9413C32.99 26.9413 33.0087 26.9413 33.046 26.96L33.3047 27.0133H33.3234C33.398 27.0347 33.4727 27.0533 33.5447 27.0907C33.5634 27.0907 33.582 27.1093 33.6194 27.1093C33.6754 27.128 33.75 27.1467 33.806 27.1813C33.8247 27.1813 33.8434 27.2 33.8594 27.2C33.934 27.2373 34.0087 27.256 34.0834 27.2933H34.102C34.1877 27.3257 34.2684 27.3696 34.342 27.424H34.3607C34.4354 27.4613 34.51 27.5147 34.5847 27.552C34.6034 27.552 34.6034 27.5707 34.6194 27.5707C34.694 27.608 34.7527 27.664 34.8247 27.7013L34.8434 27.72C35.0647 27.8853 35.27 28.072 35.4727 28.256L35.4914 28.2747C36.3172 29.1445 36.7756 30.2993 36.7714 31.4987C36.7304 32.7097 36.2206 33.8575 35.3494 34.6998C34.4782 35.542 33.3138 36.0128 32.102 36.0128C30.8903 36.0128 29.7259 35.542 28.8547 34.6998C27.9835 33.8575 27.4736 32.7097 27.4327 31.4987C27.4298 30.4602 27.7749 29.4507 28.413 28.6314C29.051 27.8121 29.9452 27.2302 30.9527 26.9787ZM12.718 26.848C15.294 26.848 17.3874 28.944 17.3874 31.5173C17.3874 34.0907 15.294 36.1867 12.7207 36.1867C10.1474 36.1867 8.04871 34.0933 8.04871 31.52C8.04871 28.9467 10.1447 26.848 12.718 26.848ZM55.8194 42.9147C55.6086 44.1001 55.139 45.2245 54.4439 46.2077C53.7488 47.1909 52.8454 48.0086 51.798 48.6027C49.7767 49.7707 47.294 50.1413 44.6807 50.512C43.2113 50.7003 41.7518 50.9592 40.3074 51.288C36.454 52.2347 32.75 54.088 29.1554 55.8667C24.558 58.144 20.222 60.2933 16.2034 60.2933C14.1426 60.3061 12.1311 59.6637 10.4594 58.4587C6.38205 55.6427 6.58471 50.3627 7.06738 47.472C7.51271 44.7653 8.75271 42.2293 9.93938 39.8C10.014 39.6533 10.07 39.5227 10.1447 39.3733C10.55 39.5227 10.9767 39.6347 11.422 39.7093C10.718 43.6373 12.718 47.6933 16.6114 49.696L17.3154 50.0667L18.0727 49.7893C21.3154 48.64 24.318 46.768 26.9687 44.2667C28.4325 42.9018 29.7262 41.3654 30.822 39.6907C31.2487 39.7627 31.6754 39.7813 32.102 39.7813C33.9364 39.7771 35.7178 39.1661 37.1687 38.0437C38.6196 36.9213 39.6585 35.3505 40.1234 33.576H43.2354C43.6972 35.3532 44.736 36.9267 46.1887 38.0498C47.6414 39.1729 49.4258 39.7819 51.262 39.7813C52.798 39.7813 54.222 39.3547 55.4487 38.6347C55.9287 40.0213 56.078 41.4693 55.8194 42.9147Z" fill="#E7ECF1"/>
</g>
<defs>
<clipPath id="clip0_16_152">
<rect width="64" height="64" fill="white" transform="translate(0.206055)"/>
</clipPath>
</defs>
</svg>
