<svg width="65" height="64" viewBox="0 0 65 64" fill="none" xmlns="http://www.w3.org/2000/svg">
<g clip-path="url(#clip0_15_2)">
<path d="M0.794006 0H64.794V64H0.794006V0ZM59.5513 48.736C59.0847 45.816 57.1833 43.3627 51.5433 41.0747C49.5807 40.1547 47.3993 39.5147 46.7513 38.0347C46.5087 37.1547 46.4713 36.6747 46.6287 36.1547C47.0287 34.432 49.0687 33.9147 50.6687 34.3947C51.7087 34.7147 52.6687 35.5147 53.2713 36.7947C56.0287 34.992 56.0287 34.992 57.9513 33.7947C57.2313 32.6747 56.874 32.192 56.3887 31.7147C54.7087 29.8347 52.4713 28.8747 48.8313 28.9573L46.9513 29.1947C45.1487 29.6347 43.4313 30.5947 42.3913 31.8747C39.3513 35.3173 40.2287 41.3173 43.9087 43.7973C47.5487 46.5173 52.8713 47.1147 53.5513 49.6773C54.1913 52.7973 51.2313 53.7973 48.3087 53.4373C46.146 52.9573 44.9487 51.8747 43.6287 49.8747L38.7487 52.6773C39.3087 53.9573 39.9487 54.5147 40.9087 55.6347C45.5487 60.3173 57.1487 60.0773 59.2313 52.9573C59.3087 52.7173 59.8713 51.0773 59.4287 48.5573L59.5513 48.736ZM35.5967 29.416H29.602C29.602 34.584 29.578 39.72 29.578 44.896C29.578 48.1813 29.746 51.1973 29.21 52.1253C28.33 53.9627 26.0633 53.728 25.034 53.4053C23.978 52.8827 23.442 52.1627 22.8207 51.1253C22.6527 50.8453 22.5273 50.6027 22.482 50.6027L17.6153 53.6027C18.4287 55.2827 19.6153 56.728 21.146 57.648C23.426 59.008 26.49 59.448 29.698 58.728C31.786 58.1253 33.586 56.8853 34.5273 54.9653C35.8873 52.4853 35.5993 49.4453 35.586 46.0427C35.618 40.5653 35.586 35.0853 35.586 29.5653L35.5967 29.416Z" fill="#E7ECF1"/>
</g>
<defs>
<clipPath id="clip0_15_2">
<rect width="64" height="64" fill="white" transform="translate(0.794006)"/>
</clipPath>
</defs>
</svg>
