<svg width="65" height="64" viewBox="0 0 65 64" fill="none" xmlns="http://www.w3.org/2000/svg">
<g clip-path="url(#clip0_15_12)">
<path d="M32.2007 64C31.3447 64 30.4914 63.776 29.7421 63.3413L21.9127 58.7093C20.7447 58.056 21.3154 57.824 21.6994 57.688C23.2594 57.1467 23.5741 57.0213 25.2407 56.0773C25.4141 55.9787 25.6434 56.016 25.8221 56.1227L31.8381 59.6933C32.0567 59.8133 32.3634 59.8133 32.5634 59.6933L56.0167 46.1573C56.2354 46.032 56.3741 45.7813 56.3741 45.5227V18.456C56.3741 18.192 56.2327 17.944 56.0087 17.8107L32.5661 4.28533C32.3501 4.16 32.0621 4.16 31.8434 4.28533L8.40606 17.8133C8.17939 17.944 8.03539 18.2 8.03539 18.456V45.5227C8.03539 45.7813 8.17939 46.0267 8.40606 46.1493L14.8301 49.8613C18.3154 51.6053 20.4514 49.552 20.4514 47.488V20.7653C20.4514 20.3867 20.7554 20.0907 21.1341 20.0907H24.1074C24.4781 20.0907 24.7874 20.3893 24.7874 20.7653V47.488C24.7874 52.1413 22.2541 54.808 17.8434 54.808C16.4887 54.808 15.4194 54.808 12.4407 53.3387L6.28606 49.8C4.76606 48.9227 3.82739 47.28 3.82739 45.5227V18.456C3.82739 16.6987 4.76873 15.056 6.28606 14.1813L29.7394 0.629329C31.2247 -0.210671 33.1954 -0.210671 34.6674 0.629329L58.1181 14.1813C59.6381 15.0587 60.5821 16.6987 60.5821 18.456V45.5227C60.5821 47.28 59.6381 48.9173 58.1181 49.8L34.6674 63.3413C33.9207 63.776 33.0701 64 32.2007 64ZM51.1367 37.3147C51.1367 32.248 47.7127 30.8987 40.5047 29.9467C33.2221 28.984 32.4807 28.4853 32.4807 26.7813C32.4807 25.3733 33.1074 23.4933 38.5021 23.4933C43.3207 23.4933 45.0967 24.5307 45.8274 27.7787C45.8914 28.0853 46.1714 28.3093 46.4861 28.3093H49.5287C49.7181 28.3093 49.8967 28.2267 50.0247 28.0933C50.1527 27.9493 50.2221 27.7653 50.2034 27.5707C49.7314 21.976 46.0141 19.368 38.5021 19.368C31.8141 19.368 27.8247 22.1893 27.8247 26.9227C27.8247 32.056 31.7927 33.4747 38.2114 34.1093C45.8914 34.8613 46.4861 35.984 46.4861 37.4933C46.4861 40.1147 44.3821 41.232 39.4407 41.232C33.2354 41.232 31.8701 39.6747 31.4114 36.5867C31.3581 36.256 31.0754 36.0133 30.7367 36.0133H27.7047C27.3287 36.0133 27.0274 36.312 27.0274 36.688C27.0274 40.64 29.1767 45.3493 39.4407 45.3493C46.8754 45.352 51.1367 42.4267 51.1367 37.3147Z" fill="#E7ECF1"/>
</g>
<defs>
<clipPath id="clip0_15_12">
<rect width="64" height="64" fill="white" transform="translate(0.206055)"/>
</clipPath>
</defs>
</svg>
