<svg width="65" height="64" viewBox="0 0 65 64" fill="none" xmlns="http://www.w3.org/2000/svg">
<g clip-path="url(#clip0_16_128)">
<path d="M31.5042 0.0213588C30.8776 0.0426921 30.2509 0.107225 29.6234 0.193359C29.0192 0.258959 28.4146 0.366425 27.8314 0.454159C27.1197 0.540292 26.4072 0.583492 25.6936 0.670692C25.0237 0.757625 24.3325 0.887492 23.6635 0.996025C23.4253 1.03896 23.1869 1.12509 22.9488 1.16776C22.4314 1.27603 21.8912 1.31976 21.3722 1.49309C20.4445 1.77576 19.5146 2.10109 18.6074 2.44589C17.7642 2.79256 16.9432 3.16003 16.1442 3.59256C15.3232 4.04589 14.5448 4.58589 13.7672 5.10642C13.0314 5.60402 12.2984 6.12296 11.584 6.68536C10.8944 7.22722 10.2453 7.83229 9.61812 8.43843C9.27332 8.78323 8.99145 9.19496 8.66692 9.58429C8.12745 10.2123 7.58772 10.8171 7.06878 11.4667C6.63865 12.0086 6.24745 12.5702 5.83678 13.1334C5.10345 14.127 4.47732 15.188 3.89438 16.2486C3.65625 16.6814 3.44105 17.1142 3.22505 17.5459C2.90078 18.1944 2.55492 18.8227 2.25278 19.4936C2.03625 19.9483 1.86345 20.4456 1.73385 20.943C1.43252 22.0038 1.12958 23.0859 0.848516 24.1451C0.589316 25.0976 0.523983 26.0928 0.503449 27.0664C0.481316 27.9318 0.567716 28.7758 0.653849 29.6411C0.675983 29.8579 0.547449 30.1171 0.805316 30.2896C0.718916 30.5278 0.783983 30.659 0.911983 30.7C0.762649 30.9382 0.977583 31.091 0.891983 31.3078C0.869849 31.3507 0.957849 31.4368 0.998916 31.5016C0.998916 31.5672 0.978383 31.6534 0.998916 31.7182C1.02212 31.9128 1.10772 32.1075 1.10772 32.324C1.10772 32.4752 1.23705 32.6488 1.28078 32.8006C1.30185 32.8646 1.28078 32.9726 1.23732 33.016C1.10772 33.1672 1.12905 33.2968 1.32345 33.384C1.43278 33.6646 1.38932 33.7942 1.36772 33.9254C1.41038 34.1195 1.34558 34.1846 1.36772 34.228C1.54025 34.5747 1.60532 34.9632 1.62585 35.3523C1.62585 35.4392 1.66932 35.5264 1.71278 35.6342C1.73412 35.6342 1.71278 36.0454 1.71278 36.0454C1.81945 35.9814 1.90798 35.9592 2.01545 35.9158C2.08105 36.1966 2.14478 36.4576 2.23118 36.6955C2.33945 36.868 2.33998 36.9534 2.29705 36.9747C2.38345 37.364 2.42612 37.732 2.57625 38.1C2.57625 37.6894 2.53492 37.2787 2.46958 36.8886C2.77145 36.9971 3.03092 37.1051 3.20398 37.1051C3.22612 37.0395 3.24772 36.9539 3.27012 36.9104C3.14052 36.7816 3.03225 36.5872 2.90238 36.4574C2.94558 36.6299 2.90238 36.6952 2.90238 36.7608C2.81625 36.7166 2.70745 36.6731 2.59972 36.6296C2.68612 36.523 2.77278 36.4136 2.90238 36.2846C2.90238 36.0891 2.79572 35.9155 2.49198 35.9379C2.62185 35.8947 2.75145 35.8307 2.90238 35.7864C3.14052 35.6576 2.88078 35.4198 2.88078 35.1171C2.90212 34.7499 2.68665 34.3819 2.62158 33.9918C2.51332 33.3867 2.53518 32.4779 2.47065 31.872C2.34078 31.7635 2.23278 32.0446 2.21145 32.0667C2.27732 32.5856 2.34105 33.1043 2.38372 33.624C2.25492 33.1912 2.16772 32.7152 2.06025 32.1955C2.03812 32.3472 2.01705 32.4115 2.01705 32.499C1.91038 32.6056 1.99572 32.7374 2.06025 32.8883C1.90932 32.8227 1.73598 32.8456 1.73598 32.8456V33.4515C1.52078 33.2347 1.45652 33.0616 1.34745 32.9088C1.30478 32.7363 1.28132 32.564 1.24052 32.3915C1.28132 32.2824 1.24052 32.2182 1.24052 32.1542C1.21527 31.981 1.19349 31.8074 1.17518 31.6334C1.19652 31.612 1.15358 31.2883 1.15358 31.2883C1.32612 31.3096 1.43545 31.3291 1.54292 31.3291C1.32692 31.0499 1.47705 30.8763 1.56478 30.7032C1.60798 30.6163 1.75945 30.5963 1.80292 30.5075C1.97545 30.183 2.25678 29.9248 2.25678 29.5128C2.25678 29.3182 2.32345 29.1022 2.34372 28.9067C2.38692 28.5387 2.42932 28.1712 2.44985 27.8035C2.49412 27.3272 2.45012 26.8507 2.55918 26.3966C2.73332 25.6414 2.94905 24.8832 3.18612 24.1256C3.35865 23.5838 3.55465 23.067 3.76958 22.5248C4.09385 21.6808 4.39625 20.8368 4.80692 20.0374C5.38985 18.8683 6.05972 17.743 6.70825 16.5968C7.11892 15.8827 7.55092 15.2118 8.00558 14.5198C8.43678 13.8491 8.86798 13.1568 9.36638 12.5286C10.0584 11.6419 10.8149 10.8192 11.6573 10.0838C12.5218 9.30536 13.3426 8.50509 14.2709 7.79096C15.4781 6.85811 16.7643 6.03223 18.1149 5.32269C19.2176 4.73976 20.3621 4.28323 21.5075 3.85069C22.2424 3.56989 23.0416 3.44003 23.7987 3.20189C24.6624 2.92029 25.5266 2.79203 26.4338 2.76989C27.0168 2.74856 27.5786 2.68269 28.1616 2.61763C28.6958 2.57737 29.2292 2.52723 29.7616 2.46723C29.719 2.52037 29.6824 2.57805 29.6525 2.63923C29.4163 2.98589 29.1568 3.33256 28.9189 3.67816C28.7242 3.95976 28.5083 4.26242 28.3136 4.54322C27.9672 4.99923 27.6 5.45309 27.2762 5.92909C26.7797 6.64376 26.3251 7.37896 25.8061 8.09256C25.2888 8.78456 24.7266 9.43442 24.1864 10.1043C23.4736 11.0355 22.8034 11.987 22.0909 12.9171C21.4424 13.8038 20.7533 14.6491 20.1259 15.5358C19.5642 16.3134 19.0664 17.1368 18.5261 17.9358C17.7272 19.1262 16.928 20.2942 16.129 21.4848C15.502 22.3908 14.8682 23.2922 14.2277 24.1888C14.1842 24.2544 14.1194 24.2739 14.0554 24.3174C13.8829 24.5982 13.8829 24.7502 13.817 24.88C13.6448 25.204 13.4725 25.5291 13.2773 25.8328C13.1688 26.0054 13.0173 26.156 12.8877 26.3294C12.8664 26.0699 13.2322 25.9398 13.0597 25.6147C12.953 25.7886 12.8437 25.9395 12.7365 26.1128L12.4773 26.6302C12.5621 26.6947 12.7074 26.739 12.568 26.8632C12.5536 26.8126 12.4808 26.7784 12.4261 26.7371C12.244 26.9903 12.0709 27.2495 11.9088 27.516C12.0384 27.6235 12.1024 27.5811 12.1888 27.4291C12.2666 27.2728 12.3789 27.151 12.48 27.0179C12.4442 27.0846 12.4071 27.1507 12.3688 27.216C12.4623 27.1608 12.5434 27.0868 12.6069 26.9987C12.6069 27.2368 12.477 27.431 12.3688 27.6254C12.2824 27.7982 12.0666 27.9288 11.9154 28.0576C11.9368 28.079 12.0882 28.1448 12.1104 28.1664C12.305 28.1008 12.3698 27.9936 12.3922 28.0576C12.4578 27.9715 12.5213 27.9067 12.5426 27.8419C12.628 27.6251 12.7578 27.4526 12.9738 27.3654C13.0608 27.3222 13.1253 27.2574 13.1904 27.1934C13.8389 26.5219 14.508 25.8734 15.0909 25.1587C15.9989 24.0547 16.82 22.9094 17.6856 21.7846C18.0517 21.3083 18.4848 20.8326 18.8731 20.3776C18.937 20.8752 18.8944 21.3507 18.8731 21.8062C18.8074 22.6062 18.765 23.4067 18.701 24.2278C18.6789 24.552 18.7005 24.8763 18.6784 25.2016C18.6784 25.2878 18.613 25.3528 18.613 25.4398C18.613 25.6558 18.6784 25.8942 18.6784 26.111C18.6128 26.9115 18.5259 27.6894 18.4611 28.4896C18.4389 28.6622 18.525 28.8363 18.5677 28.988C18.4611 30.1555 18.6989 31.3899 18.5037 32.6232C18.6546 32.3851 18.6984 32.2334 18.6984 32.0824C18.7189 31.9526 18.6984 31.823 18.6984 31.6718V31.4555C18.7189 31.0654 18.8045 30.6552 18.7618 30.2651C18.7186 29.8326 18.7181 29.4219 18.805 29.0104C18.8485 28.8379 18.7845 28.6211 18.893 28.4046V28.7288C18.8717 29.9603 18.9152 31.1944 18.7426 32.4275C18.7205 32.536 18.8077 32.7315 18.5696 32.7091C18.3741 33.0984 18.6122 33.38 18.3973 33.596C18.3531 33.6392 18.4387 33.8342 18.4611 33.964C18.3738 34.224 18.3738 34.224 18.5037 34.2456C18.525 34.7216 18.5693 35.1531 18.5898 35.608C18.9346 34.787 18.7624 33.9411 18.9152 33.0971C18.9363 33.4435 18.9587 33.7907 18.9365 34.1568C18.9365 34.7208 18.9144 35.2603 18.8933 35.8227C18.8933 35.9312 18.8712 36.0395 18.8501 36.148C18.7843 36.4518 18.7645 36.7539 18.6562 37.0347C18.5698 37.2515 18.6136 37.5768 18.6136 37.8355V38.659C18.6997 39.027 18.5912 39.2211 18.6562 39.4371C18.5904 39.6547 18.5696 39.72 18.5901 39.7848L18.6562 40.1091C19.0888 40.0659 18.8941 40.3907 19.0667 40.563C18.9368 40.7371 18.9805 40.8011 18.9805 40.8891C18.9805 41.0838 18.9597 41.2571 18.9378 41.4518C18.9378 41.9491 18.916 42.4464 18.916 42.9227C18.916 42.9883 18.9376 43.0518 18.9376 43.1166C18.9376 43.1608 18.9162 43.7235 18.9162 43.7235C18.9592 43.7875 18.9157 43.8526 18.8498 43.9174C18.8293 43.9174 18.7645 41.1699 18.7645 41.1699H18.4403C18.3976 42.467 18.5064 43.635 18.2682 44.8478C18.0088 44.8691 17.9229 44.9118 17.6405 44.9118C16.9706 44.9118 16.301 44.9115 15.6312 44.9331C14.8314 44.9331 14.0546 44.9544 13.2541 44.9544C12.8666 44.9544 12.4565 44.999 12.0674 44.999C11.5482 44.999 11.0082 44.9328 10.4909 44.9328C9.69038 44.9328 8.91252 44.9984 8.11305 45.0198C7.53012 45.0411 6.94745 45.0411 6.36452 45.063C5.97438 45.0843 5.58425 45.1048 5.19652 45.1491C5.02425 45.1704 4.87278 45.2344 4.65678 45.2995C4.59118 45.2995 4.44052 45.2782 4.31172 45.2995C4.09412 45.3427 3.90158 45.4726 3.68398 45.5168C3.35972 45.5824 3.27332 45.6672 3.31598 45.9923V46.2088C3.29492 46.2515 3.79172 46.1427 3.79172 46.1427C3.74745 46.1427 3.72612 46.2726 3.66052 46.3808C3.83438 46.3152 3.94238 46.2723 4.05092 46.2296C4.37518 46.3816 4.65572 46.2952 4.91412 46.3608C5.75678 46.576 6.62078 46.6648 7.48425 46.7494C8.04692 46.7926 8.58692 46.815 9.14825 46.8355C9.94745 46.8787 10.7466 46.9224 11.5456 46.9224C12.2154 46.9224 12.864 46.8571 13.5322 46.8571C14.4602 46.8571 15.3912 46.8998 16.3197 46.9224C16.5144 46.9224 16.7306 46.9011 16.9466 46.9011H18.5229C19.9285 46.8584 21.3325 46.8352 22.7373 46.7944C23.5378 46.7704 24.3581 46.7286 25.157 46.7064L27.6203 46.6403C28.5709 46.619 29.5216 46.619 30.4512 46.5995C31.1637 46.5995 31.8549 46.5755 32.5693 46.5542C33.3672 46.5328 34.1882 46.4683 34.988 46.4254C35.4208 46.404 35.8533 46.3595 36.2853 46.3166C36.8043 46.2739 37.3442 46.2099 37.8616 46.1878C38.64 46.1435 39.4394 46.1227 40.2178 46.079C41.1898 46.015 42.1624 45.928 43.1557 45.9059C44.0637 45.8632 44.9925 45.8846 45.9005 45.8632C46.7005 45.8419 47.4995 45.7976 48.3203 45.7763L49.6837 45.7102C49.6837 45.7102 50.5904 45.6888 51.0443 45.6448C51.8219 45.6022 52.5989 45.5158 53.3771 45.4944C53.8731 45.4731 54.3707 45.495 54.8675 45.4731C55.6664 45.4518 56.4875 45.407 57.2872 45.407C57.5885 45.407 57.9125 45.4518 58.3018 45.4731C58.1293 45.6251 58.0211 45.7107 57.8912 45.8192C57.9776 45.8406 58.0635 45.8851 58.1504 45.928C58.0208 46.0142 57.9131 46.035 57.8064 46.035C57.7619 46.1443 57.7184 46.187 57.6749 46.4038H58.0635C57.9125 46.4038 57.7835 46.5984 57.6323 46.728C57.46 46.6838 57.3072 46.728 57.2211 46.9662C57.3722 47.0515 57.3512 47.1166 57.3298 47.2043C57.0704 47.2896 56.8763 47.3766 56.9853 47.6571C56.8973 47.7 56.7896 47.7435 56.6813 47.8083C56.5744 47.9808 56.3792 48.0243 56.4219 48.2622C56.5091 48.2835 56.5944 48.3288 56.6603 48.3483C56.5517 48.3915 56.4443 48.456 56.336 48.4987C55.9475 48.7368 56.12 48.8454 56.2064 48.9536C56.1408 48.9968 56.0773 49.04 56.0125 49.0624C56.0552 49.2571 56.1192 49.3006 56.1411 49.3006C56.0643 49.3593 55.9888 49.4196 55.9144 49.4814C55.9213 49.4572 55.9302 49.4336 55.9411 49.411H55.8544C55.8544 49.4507 55.8624 49.4848 55.8683 49.5187C55.8485 49.5347 55.8373 49.5427 55.8168 49.5595C55.7512 49.7542 55.6648 49.84 55.5787 49.9696C55.4925 50.0995 55.4488 50.2736 55.3405 50.4027C54.8872 50.9014 54.5627 51.4864 53.9797 51.8747C53.7629 52.0267 53.5691 52.2211 53.3744 52.4163C52.9853 52.7835 52.64 53.195 52.2296 53.5416C51.6901 53.9955 51.1299 54.4056 50.5453 54.8171C49.8333 55.3144 49.1208 55.8128 48.4072 56.2891C48.0181 56.5478 47.5859 56.7422 47.1752 56.9803C46.7645 57.2184 46.3755 57.435 45.9651 57.6723C45.7056 57.8448 45.4677 58.0827 45.1869 58.2139C44.4741 58.5179 43.7176 58.7766 42.9837 59.0582C42.2693 59.3622 41.7517 59.62 41.2117 59.8147C40.7149 59.9872 40.196 60.1184 39.6778 60.2251C39.5056 60.2694 39.3098 60.2254 39.1152 60.2491C38.7474 60.3147 38.3808 60.4022 38.0128 60.4448C37.0621 60.5744 36.1117 60.6608 35.1621 60.7907C34.5994 60.8563 34.0584 60.9632 33.4968 61.0288C33.1085 61.0502 32.6984 61.0075 32.3093 61.0075C32.0285 61.0075 31.7266 61.0736 31.445 61.0315C30.9917 60.9659 30.5373 60.8595 30.0834 60.7723C29.9768 60.751 29.8245 60.7062 29.7392 60.751C29.5666 60.8379 29.4133 60.7083 29.24 60.751C29.1333 60.7723 29.0251 60.6856 28.9165 60.6856C28.8296 60.6643 28.7216 60.7096 28.6131 60.6856C28.3752 60.6216 28.1597 60.5347 27.8984 60.556C27.6416 60.5774 27.381 60.448 27.1021 60.384C26.712 60.2971 26.3469 60.212 25.956 60.124C25.8058 60.0808 25.6768 60.0155 25.5248 59.9294C24.9624 59.9294 24.5949 59.908 24.2493 59.7774C23.9472 59.6707 23.6666 59.519 23.3426 59.5624C23.2573 59.5838 23.192 59.5411 23.1042 59.5411C23.0386 59.4542 22.9752 59.2811 22.9112 59.2811C22.4792 59.3024 22.22 58.9366 21.8522 58.8272C21.6584 58.7616 21.5069 58.5454 21.3122 58.4806C20.836 58.2859 20.449 57.8758 19.909 57.811C19.7365 57.7896 19.5634 57.7016 19.3682 57.6376C19.4338 57.723 19.4754 57.7888 19.541 57.8534C18.9146 57.5494 18.3312 57.2046 17.7474 56.8795C17.6621 56.8582 17.5976 56.7728 17.5328 56.7283L16.949 56.3355C16.6248 56.4011 16.4955 56.2704 16.4077 56.2278C15.8245 55.8174 15.1554 55.5568 14.5931 55.1027C14.3549 54.9072 14.0757 54.7774 13.9034 54.5395C13.5994 54.1715 13.2322 53.9128 12.8218 53.6968C12.4984 53.5243 12.1962 53.3288 11.8941 53.1342C11.7421 53.0259 11.5906 52.896 11.5906 52.6579C11.5906 52.5059 11.5269 52.3544 11.3325 52.4414C11.2461 52.3118 11.16 52.1606 11.0517 52.1171C10.7922 52.0104 10.6192 51.8131 10.4248 51.6406C10.2301 51.468 10.0802 51.2304 9.84212 51.144C9.40958 50.9715 9.14958 50.6038 8.89092 50.3008C8.28505 49.5864 7.74505 48.8067 7.18345 48.0515C7.13998 47.9859 7.05358 47.9422 6.98878 47.8776C7.07492 48.1158 7.18345 48.3102 7.29118 48.5262C7.07598 48.44 6.92532 48.2878 6.79572 48.1368C6.77358 48.1582 8.28505 50.6467 8.28505 50.6467C8.41625 50.8414 8.52318 51.0366 8.65278 51.231C8.32852 51.2523 8.11252 51.079 8.00425 50.8843C7.81038 50.5392 7.59438 50.3235 7.16238 50.3678C7.11972 50.215 7.07598 50.0416 7.05572 49.8912C6.95368 49.8927 6.85173 49.8847 6.75118 49.8672C7.05518 50.3435 7.31385 50.7544 7.59465 51.2304C7.48532 51.1648 7.42238 51.1222 7.37732 51.1008C7.76558 51.5115 8.04665 52.031 8.54318 52.2912C8.65172 52.788 9.21332 53.0262 9.34318 53.5024C9.23652 53.4811 9.14718 53.4587 9.03865 53.4363C8.86638 53.2203 8.67172 53.0048 8.47785 52.767C8.51565 52.9082 8.58159 53.0404 8.67172 53.1555C8.93118 53.4798 9.16958 53.804 9.47172 54.0856C9.57998 54.1958 9.73092 54.239 9.73092 54.4336C9.90318 54.5198 9.96932 54.5403 10.0333 54.5403C10.0776 54.672 10.0133 54.8664 10.2717 54.823C10.444 55.1472 10.616 55.147 10.8541 55.0395C11.1357 55.3211 11.2872 55.3435 11.4808 55.1707C11.4808 55.2774 11.5026 55.3862 11.5026 55.4734C11.5888 55.4302 11.5688 55.3654 11.5688 55.2568C11.6754 55.343 11.7408 55.3862 11.7834 55.4288C11.9994 55.7326 12.1944 56.0131 12.4965 56.2512C12.9072 56.5979 13.2741 56.9659 13.6616 57.2902C14.4186 57.9184 15.2632 58.4374 16.1048 58.9128C17.1426 59.4974 18.1368 60.1248 19.1949 60.6862C20.469 61.3582 21.8304 61.8134 23.2344 62.1376C23.7533 62.2462 24.2504 62.3531 24.7698 62.4816C25.2213 62.6134 25.6757 62.8083 26.1299 62.9158C26.8211 63.0675 27.5338 63.1974 28.225 63.3262C28.3755 63.3475 28.529 63.371 28.7016 63.3923C28.8944 63.4355 29.132 63.3486 29.1754 63.4136C29.2837 63.5862 29.3701 63.499 29.4997 63.4776C29.6509 63.4347 29.8237 63.4347 29.9963 63.4347C30.6013 63.456 31.184 63.5851 31.7891 63.5424C31.9202 63.5424 32.1144 63.4331 32.2229 63.6491C32.4168 63.5632 32.5253 63.563 32.6115 63.5424C32.6346 63.7363 32.6109 63.7368 32.5696 63.7579C32.5253 63.7792 32.4611 63.8006 32.3749 63.8656C33.1525 64.0168 33.8869 64.0382 34.5339 63.8656C35.6586 63.9518 36.6309 63.8224 37.5605 63.4976C37.6467 63.6062 37.7117 63.7574 37.8413 63.5411C37.884 63.4755 37.9917 63.4536 38.0787 63.4323C38.2725 63.3891 38.5107 63.3022 38.6829 63.3662C38.8784 63.4318 38.944 63.2592 39.0941 63.2592C39.3544 63.2592 39.5917 63.2379 39.8298 63.1939C39.9594 63.1726 40.0891 63.1078 40.24 63.0643C40.0921 62.9908 39.9289 62.9533 39.7637 62.9547C40.0064 62.8347 40.2517 62.7199 40.4992 62.6102C40.456 62.6742 40.4125 62.7598 40.3272 62.7598H40.628C40.5621 62.7598 40.4762 62.9544 40.3688 63.0843C41.1456 62.8896 41.8581 62.7166 42.5501 62.5424C42.3122 62.0891 42.809 62.2411 42.9824 61.9808C42.7664 62.0464 42.5504 62.1102 42.3339 62.1528C43.0685 61.7859 43.8245 61.4616 44.5587 61.1374C44.452 61.267 44.3203 61.3326 44.1275 61.4416C44.2571 61.463 44.3434 61.463 44.4082 61.4824C44.7531 61.5915 44.6677 61.2675 44.7752 61.072C45.1859 61.072 45.3578 61.008 45.5525 60.9424C45.7685 60.8768 45.9845 60.8123 46.201 60.7259C46.5459 60.5747 46.8701 60.3811 47.2157 60.2086C47.2816 60.1846 47.3888 60.2086 47.4757 60.2086C47.7139 60.0558 47.7986 59.9264 47.8634 59.9478C48.1674 59.991 48.3808 59.8827 48.4677 59.6035C48.4933 59.5848 48.5061 59.5766 48.5296 59.5592C48.6163 59.7499 48.7896 59.771 49.0704 59.5779C48.8971 59.5779 48.724 59.5566 48.5731 59.535C48.557 59.535 48.5515 59.5456 48.5424 59.551C48.6504 59.471 48.7499 59.3947 48.8357 59.3422C49.3101 59.0827 49.7627 58.8235 50.2389 58.564C50.4112 58.564 50.4986 58.5643 50.5413 58.5427C50.824 58.4112 51.0827 58.2616 51.3413 58.1096C51.2757 58.0883 51.1256 58.003 51.1256 58.003C51.265 57.977 51.4023 57.9405 51.5363 57.8939C52.0533 57.2864 52.7677 56.8755 53.3069 56.3992C53.5453 56.3779 53.5453 56.3134 53.5453 56.2707C53.6307 56.1622 53.7179 56.0326 53.8245 55.9454C54.3008 55.5128 54.8179 55.1451 55.2504 54.691C55.8771 54.0622 56.4816 53.4123 57.0432 52.7416C57.5605 52.1358 58.0816 51.531 58.5136 50.86C59.1187 49.9299 59.6365 48.9774 60.1768 48.003C60.5661 47.3118 60.912 46.6198 61.3021 45.9278C61.3427 45.8622 61.4301 45.7755 61.4949 45.7755C62.0779 45.7099 62.6629 45.6688 63.2243 45.6035C63.3541 45.5822 63.5051 45.496 63.6347 45.4302C63.5691 45.3219 63.5267 45.1928 63.4624 45.0843C63.3755 44.9528 63.2461 44.8462 63.1592 44.7147C63.0739 44.608 63.0083 44.4768 62.9435 44.3478C62.8779 44.2411 62.8136 44.1534 62.7488 44.0435C62.6173 43.8054 62.4885 43.5675 62.3792 43.3096C62.3579 43.244 62.3136 43.1371 62.3365 43.0715C62.7256 42.2283 62.8771 41.3203 63.244 40.4763C63.6112 39.611 63.7203 38.6371 63.8928 37.707C64.0437 36.8203 64.1301 35.9331 64.2368 35.0464C64.3027 34.4192 64.3896 33.8131 64.4101 33.1859C64.5413 32.1907 64.4965 31.2598 64.4752 30.3288C64.4541 29.5075 64.4093 28.6638 64.3685 27.8411L64.3667 27.8384C64.3237 26.9947 64.3021 26.151 64.2152 25.3078C64.0643 24.1608 63.9131 22.992 63.6536 21.8672C63.4589 20.9371 63.1363 20.0499 62.8109 19.1632C62.4005 18.1246 61.9901 17.0646 61.4712 16.0699C60.6288 14.4686 59.5272 13.0403 58.5115 11.5475C57.84 10.5952 56.976 9.81656 56.3275 8.84269C55.9605 8.28029 55.42 7.80536 54.8797 7.37336C54.0152 6.67949 53.1082 6.05176 52.201 5.44669C51.5096 4.97043 50.8186 4.51629 50.0829 4.10509C49.5 3.77923 48.8736 3.51976 48.2685 3.23816C47.5771 2.91389 46.9069 2.52349 46.1296 2.37229C45.9341 2.33149 45.7616 2.26563 45.5669 2.20029C45.0704 2.02776 44.5952 1.83309 44.0976 1.68109C43.3424 1.44296 42.6074 1.16269 41.829 0.967225C41.0755 0.772559 40.2973 0.643492 39.5189 0.534425C38.6552 0.407225 37.7699 0.362425 36.9045 0.277892C36.3429 0.212292 35.7816 0.148025 35.2413 0.126692C34.4202 0.0837588 33.5781 0.0837588 32.7573 0.0624255C32.3467 0.0410921 31.9146 -0.0010412 31.5042 0.0213588ZM33.3552 2.52803C33.6368 2.57229 33.8973 2.61549 34.156 2.63736L35.1933 2.70296C35.9709 2.76616 36.7485 2.81016 37.5253 2.91683C38.1738 3.00456 38.8229 3.13443 39.4928 3.24216C40.9197 3.48003 42.3232 3.86963 43.6845 4.32349C44.4843 4.58296 45.2608 4.92963 46.0408 5.25416C47.7896 5.96829 49.4539 6.83336 51.0957 7.74136C51.6131 8.02296 51.9171 8.47682 52.3043 8.88802C52.8669 9.47283 53.4291 10.0568 53.9683 10.6619C54.5941 11.3763 55.1771 12.112 55.7832 12.8478C56.3224 13.4963 56.8837 14.1451 57.4256 14.7955C57.5979 14.9902 57.729 15.228 57.8784 15.444C58.2232 15.9638 58.6128 16.4614 58.9149 17.023C59.1301 17.435 59.2603 17.9115 59.4115 18.3654C59.6264 19.0363 59.8435 19.6848 60.06 20.3555C60.2101 20.8531 60.3384 21.3739 60.4467 21.891C60.5339 22.2384 60.5133 22.6054 60.62 22.9502C60.7512 23.4067 60.62 23.903 60.7512 24.3587C60.7717 24.4019 60.7925 24.4664 60.8155 24.5099C60.9019 24.5952 60.9661 24.6827 60.836 24.8123C60.8155 24.8336 60.8155 24.919 60.836 24.9843C60.8803 24.9416 60.9021 24.8979 60.9456 24.8331C60.9456 24.8763 60.9659 24.8998 60.9659 24.92C60.9659 25.0054 60.9437 25.092 60.9659 25.1782C60.9659 25.2211 61.0085 25.2851 61.0301 25.3294C61.0736 25.2851 61.1162 25.2638 61.2024 25.1982C61.3971 25.9347 61.4197 26.6696 61.4197 27.4267C61.4197 28.1408 61.548 28.8552 61.2467 29.5472C61.3107 29.3091 61.16 29.092 61.2253 28.876L61.2339 28.8814C61.2117 28.8814 61.0832 28.7496 61.0619 28.7283C61.0397 28.7939 61.0619 28.8576 61.0184 28.9448C60.9963 28.8808 60.8456 28.903 60.8456 28.8387C60.8235 29.1408 60.9747 29.4435 60.9523 29.7464C61.0181 29.7032 61.2771 29.6808 61.3419 29.6168C61.364 29.6382 61.4075 29.6598 61.4288 29.6598C60.9963 29.9851 61.1048 30.3086 61.2995 30.6779C61.3421 30.7632 61.4717 30.9358 61.3421 31.1091C61.2995 31.1523 61.3643 31.2816 61.3853 31.391H61.4491V31.4328L61.2544 31.4982C61.2115 31.4326 60.9525 31.3048 60.9525 31.1947V32.2998C61.1685 32.3654 61.1688 32.667 61.2549 32.8187C61.2928 32.7661 61.3224 32.7081 61.3429 32.6467L61.3643 32.668C61.3424 32.7979 61.3211 32.927 61.2776 33.0576C61.2349 33.2515 61.1912 33.4248 61.1707 33.6192C61.1707 33.6406 61.2122 33.6848 61.2122 33.7054C60.976 34.2472 61.1056 34.8515 61.0192 35.4131C60.9536 35.8238 61.0192 36.2592 60.976 36.6912C60.9317 37.0592 60.844 37.4475 60.7587 37.8155C60.7365 37.8811 60.6933 37.9024 60.5864 37.9459C60.6293 37.6864 60.608 37.5126 60.5651 37.2747C60.5416 37.2747 60.2611 37.1235 60.2389 37.1235C60.2389 37.4272 60.4115 37.8384 60.4771 38.1832C60.4115 38.1619 60.1525 38.0102 60.132 38.0102C60.0877 38.2696 60.0872 38.6163 60.0659 38.8971C60.0437 39.1139 59.8507 39.3078 59.8285 39.5456C59.8285 39.6771 59.9795 39.7627 59.9581 39.9795H60.1301C60.1301 39.5475 60.3259 39.1582 60.3259 38.7032H60.3893C60.4115 38.7464 60.4768 38.7907 60.4555 38.812C60.4123 39.0502 60.3237 39.3094 60.3466 39.5475C60.3466 39.6774 60.4539 39.8067 60.4128 39.9579C60.3685 40.0894 60.3472 40.2182 60.3251 40.4126C60.3029 40.3043 60.2819 40.2619 60.2819 40.1971C60.2605 40.1971 60.0659 40.1758 60.0435 40.1758C60.0224 40.3056 60.1954 40.4352 60.173 40.5438C60.152 40.5651 60.1304 40.5651 60.0869 40.5867L59.3741 39.5478C58.8065 38.7225 58.2445 37.8933 57.6883 37.0603C57.5425 36.8539 57.412 36.6371 57.2979 36.4118C56.6285 35.2638 55.8939 34.1606 55.0728 33.1008C54.4472 32.3008 53.948 31.4339 53.3653 30.5923C52.8267 29.7918 52.2864 29.0123 51.7464 28.211C51.5517 27.9523 51.3144 27.7144 51.1411 27.4328C50.5805 26.5459 50.0824 25.6371 49.5224 24.7502C49.0461 24.0142 48.5285 23.2998 48.0312 22.5862C47.8587 22.348 47.6861 22.0875 47.512 21.828C47.4909 21.7872 47.4693 21.7443 47.4693 21.6792C47.4259 21.2032 47.3827 20.7267 47.3613 20.2726C47.3613 19.8398 47.4048 19.4075 47.4048 18.9526V18.5611C47.4048 18.4526 47.4251 18.3664 47.4251 18.2576C47.4456 18.2363 47.4677 18.1928 47.4891 18.1715C46.8629 18.1715 46.2144 18.1475 45.5877 18.1715C45.1771 18.1928 44.9616 18.0187 44.6811 17.7158C43.8597 16.7856 43.2544 15.7259 42.5419 14.731C41.872 13.7784 41.1805 12.8475 40.4891 11.9174C39.9267 11.1603 39.364 10.4251 38.8032 9.66803C38.176 8.80269 37.572 7.93736 36.9235 7.07176C36.1451 6.03416 35.3453 4.99443 34.5464 3.95656C34.177 3.48029 33.7659 3.02643 33.3552 2.52803ZM31.3504 3.66349C31.3965 3.67149 31.4403 3.71016 31.4834 3.76429C32.0664 4.50003 32.6488 5.25709 33.2317 5.99283C33.6653 6.53469 34.0976 7.05202 34.5083 7.61522C35.0051 8.30803 35.48 9.00029 35.9776 9.69256C36.5392 10.4926 37.1008 11.2936 37.6408 12.1147C38.4621 13.3272 39.2395 14.5387 40.0605 15.7499C40.6659 16.6366 41.2704 17.5027 41.8533 18.3896H40.7501C39.7352 18.3683 38.6973 18.2827 37.6826 18.3254C36.3 18.391 34.896 18.5422 33.5136 18.6507C31.7632 18.8022 29.9917 18.8224 28.2429 18.8224C27.6149 18.8224 26.9888 18.9104 26.3629 18.9536C25.6061 18.9966 24.8709 19.04 24.1149 19.0606C23.228 19.1048 22.3661 19.1262 21.4795 19.1486C20.9818 19.1699 20.464 19.1486 19.924 19.1486V19.1432C20.6136 18.1907 21.328 17.239 22.0192 16.2659C22.2352 15.9827 22.4077 15.6798 22.6234 15.3992C22.6893 15.312 22.776 15.2686 22.8834 15.1816L22.8619 15.1408C22.948 15.0315 23.0338 14.9438 23.0776 14.8582C23.1875 14.6859 23.253 14.4904 23.3389 14.2958C23.3603 14.255 23.4253 14.2115 23.4253 14.2115C23.729 14.3627 23.7288 14.039 23.8357 13.9299C24.0295 13.712 24.2167 13.4884 24.3973 13.2595C24.5269 13.087 24.6568 12.935 24.7653 12.7406C24.7861 12.675 24.7213 12.5683 24.6989 12.4806H24.6355C24.701 12.4379 24.7653 12.3736 24.8301 12.3294C24.8514 12.3294 24.8514 12.3288 24.8731 12.308C24.9973 12.1169 25.1269 11.9293 25.2616 11.7454C25.5202 11.4006 25.8011 11.0536 26.1032 10.7515C26.0605 10.8582 26.0173 10.967 25.9739 11.0534C25.996 11.0534 25.996 11.0747 26.017 11.0747C26.2765 10.728 26.5576 10.4038 26.8171 10.0566C26.7949 10.0352 26.7733 10.0139 26.7509 10.0139C26.6442 10.1222 26.5576 10.2307 26.449 10.3392C26.428 10.3179 26.4058 10.2958 26.3832 10.2958C26.6005 10.0142 26.8165 9.73309 27.0317 9.40882C27.0749 9.47443 27.1184 9.56003 27.2037 9.73336C27.2917 9.51736 27.3781 9.36616 27.4421 9.21416C27.3781 9.27976 27.2922 9.34403 27.2272 9.40989L27.1613 9.34402L27.5506 8.76162C27.9613 8.17682 28.3714 7.57069 28.7818 6.98616C28.9338 6.77016 29.1269 6.59763 29.2584 6.38083C29.6691 5.56003 30.3178 4.90936 30.8138 4.15256C30.9221 4.00136 31.0725 3.87176 31.2024 3.74189C31.2557 3.67656 31.3045 3.65549 31.3504 3.66349ZM25.2581 12.092C25.129 12.1782 25.02 12.2432 24.8912 12.3302C24.869 12.3515 24.8464 12.3526 24.8675 12.3526C24.8896 12.4592 24.8896 12.5472 24.9109 12.6976C25.0629 12.48 25.1698 12.3075 25.3013 12.135L25.2581 12.092ZM43.4923 21.0032C43.6861 21.0032 43.7944 21.0691 43.9029 21.2414C44.0965 21.5656 44.2912 21.8899 44.5069 22.2152C44.5291 22.2579 44.5731 22.3216 44.5731 22.3872C44.5731 22.8632 44.5725 23.3611 44.5936 23.8374C44.6141 24.335 44.6603 24.811 44.6797 25.3086C44.6797 25.8062 44.636 26.3251 44.6581 26.844C44.6803 27.5806 44.7013 28.3379 44.7013 29.0934L44.7048 29.095V29.2907C44.6837 29.2907 44.6621 29.312 44.6189 29.312C44.5325 29.0083 44.4464 28.6838 44.3379 28.3808C44.1221 27.7528 43.8837 27.1246 43.4947 26.563C43.0611 25.9576 42.6733 25.331 42.24 24.703C42.1333 24.5512 41.9803 24.4216 41.8507 24.2928C41.3965 23.7942 40.9432 23.2747 40.36 22.9078C39.501 22.3689 38.5973 21.9052 37.6586 21.5216C37.3994 21.415 37.1618 21.2832 36.9032 21.1323H37.4205L41.1149 21.0667C41.9146 21.0454 42.6933 21.0462 43.4923 21.0032ZM27.2682 21.5675C27.4248 21.5648 27.5813 21.5696 27.7429 21.5888C27.3981 21.763 27.0512 21.9363 26.7491 22.1523C26.3597 22.4118 25.9941 22.7576 25.604 23.039C25.2141 23.3198 24.8685 23.6667 24.545 24.0347C24.1344 24.5312 23.6805 24.9635 23.2477 25.4398C22.944 25.7862 22.5997 26.111 22.341 26.4787C21.9739 26.955 21.6493 27.4715 21.3037 28.0134C21.412 25.9574 21.5421 23.9251 21.4549 21.848C22.4704 21.8048 23.4437 21.7411 24.4389 21.6976C25.2149 21.6542 26.0149 21.6312 26.7917 21.5886C26.9538 21.5779 27.1117 21.5675 27.2682 21.5675ZM32.6885 22.6734C33.3346 22.6947 33.9829 22.6947 34.6309 22.7376C34.9114 22.759 35.1712 22.8235 35.4309 22.9096C35.7541 23.019 36.0997 23.1696 36.4026 23.3203C36.7699 23.5171 37.1152 23.7323 37.4618 23.9704C38.0882 24.3811 38.6717 24.8355 39.2981 25.2032C39.9032 25.5712 40.3781 26.0686 40.7674 26.6318C41.2437 27.3019 41.7826 27.908 41.9986 28.7299L42.3221 30.1584C42.3877 30.4179 42.5392 30.6771 42.4741 30.9792C42.3648 31.5211 42.2786 32.084 42.1925 32.6251C42.1498 32.8427 42.1069 33.0603 42.1291 33.2736C42.1698 33.947 41.9112 34.5294 41.6525 35.135C41.5656 35.3296 41.4357 35.5254 41.3283 35.7411C41.3493 35.7624 41.4789 35.828 41.5003 35.828L41.6949 35.4395C41.7173 35.4395 41.7173 35.439 41.7384 35.4608C41.6301 35.763 41.5443 36.0883 41.4349 36.3912C41.1771 37.0619 40.9176 37.7536 40.5933 38.4022C40.4208 38.7702 40.1173 39.0731 39.9021 39.4203C39.6869 39.7224 39.5139 40.0472 39.2979 40.3288C39.1032 40.567 38.9096 40.8051 38.6493 40.9776C38.0664 41.4102 37.461 41.8432 36.8346 42.1896C36.4464 42.4278 35.992 42.5568 35.56 42.6651L35.5658 42.6624C34.8739 42.835 34.1621 43.031 33.448 43.1174C32.8437 43.2043 32.2162 43.1827 31.5898 43.1827C31.0266 43.1827 30.4864 43.1614 29.9248 43.1174C29.2981 43.0534 28.6717 42.9878 28.0666 42.7062C27.5472 42.468 27.0077 42.2526 26.4907 41.9923C25.9699 41.7328 25.452 41.4302 25.0618 40.9542C24.7826 40.6067 24.3928 40.3267 24.0472 40.0238C24.1103 40.2841 24.2733 40.5092 24.501 40.6504C24.3928 40.7806 24.2413 40.7163 24.0245 40.3688C23.9605 40.412 23.896 40.4344 23.8525 40.4558C23.9181 40.3038 23.9824 40.1526 24.0472 40.0238C23.9611 39.8512 23.8525 39.6552 23.7664 39.4811C23.5927 39.1977 23.4269 38.9096 23.269 38.6171C23.2258 38.5512 23.2258 38.487 23.1829 38.4224C23.0746 38.2923 22.9666 38.1624 22.8794 38.0328C22.7072 37.7742 22.5565 37.4931 22.3405 37.2328C22.3405 37.2984 22.3621 37.3622 22.3621 37.4494C22.34 37.4494 22.3189 37.4707 22.3189 37.4707L21.8642 36.3675C21.8429 36.3675 21.8429 36.367 21.8216 36.3888L22.209 37.8174C22.188 37.8174 22.1669 37.8387 22.144 37.8387C22.0808 37.7534 22.016 37.6664 21.9717 37.5595C21.929 37.3854 21.7984 37.3851 21.6917 37.4502C21.6261 37.4931 21.5826 37.6451 21.6048 37.7099C21.7568 38.0779 21.9301 38.4454 22.1032 38.8134C22.1438 38.9396 22.194 39.0626 22.2536 39.1811C22.2757 39.2243 22.3405 39.2664 22.3405 39.3315C22.4274 39.504 22.4928 39.6768 22.6005 39.8296C22.7952 40.0891 23.0112 40.3483 23.2056 40.6078C23.3986 40.8672 23.5707 41.1499 23.7437 41.4086C23.7651 41.4518 23.8301 41.4518 23.8507 41.4739C23.96 41.7982 24.3269 42.0358 24.5864 41.9059C24.652 42.4035 25.1912 42.5766 25.4069 43.0528C25.1951 42.9662 24.9863 42.8723 24.781 42.7712C24.7589 42.7926 24.7589 42.8139 24.7368 42.8574C24.9963 42.987 25.256 43.1166 25.4922 43.2678C25.7098 43.3992 25.9256 43.5288 26.12 43.679C26.3794 43.9171 26.6826 44.0483 27.048 44.1336C27.028 44.0678 27.0069 44.0459 27.0069 44.0459C27.6112 44.3275 28.2384 44.6302 28.7128 44.8667C26.4656 44.911 24.0674 44.9544 21.5824 44.9979C21.5824 44.5872 21.5608 44.1971 21.5608 43.7859C21.5608 43.6134 21.604 43.4616 21.5813 43.2886C21.5157 42.295 21.5154 41.2982 21.3867 40.3246C21.2578 39.2867 21.2576 38.2694 21.28 37.2291C21.3005 36.6686 21.2576 36.0848 21.2355 35.5216C21.2355 34.7646 21.236 34.0278 21.2592 33.2723C21.2592 33.1638 21.3024 33.0771 21.3461 32.968H21.4123C21.4328 33.0123 21.412 33.0771 21.453 33.0992C21.5187 33.1648 21.6269 33.2718 21.6704 33.2504C21.7992 33.1635 21.9938 33.0784 22.0373 32.947C22.144 32.6883 22.1885 32.4064 22.1885 32.147C22.1885 31.9531 22.2752 31.8238 22.3605 31.6931C22.4048 31.6275 22.4266 31.5638 22.4701 31.4776C22.384 31.412 22.2976 31.3691 22.1893 31.283C22.2765 31.0448 22.2547 30.7632 22.5786 30.6344C22.6216 30.6131 22.6221 30.5027 22.6451 30.4387C22.6656 30.2638 22.6851 30.0694 22.7085 29.8971C22.7512 29.9627 22.7744 29.983 22.8152 30.0259C22.8384 29.983 22.8597 29.9598 22.8597 29.9598C22.8597 29.8744 22.8384 29.7011 22.8597 29.7011C23.1192 29.6582 23.0106 29.3771 23.1405 29.2475C23.161 29.2235 23.1189 29.1595 23.1189 29.1163C23.1189 29.0734 23.1184 29.0094 23.1395 29.0094C23.4408 28.9438 23.3981 28.6195 23.5925 28.4678C23.6581 28.4246 23.6792 28.3606 23.7656 28.2512C23.9378 28.5534 23.6355 28.7056 23.6141 28.9214C23.9805 28.7054 24.0885 28.1864 23.8725 28.0347C23.962 27.9661 24.0421 27.886 24.1106 27.7966C24.3488 27.5371 24.6069 27.2995 24.8237 27.04C24.9757 26.8462 25.0621 26.6078 25.213 26.4134C25.3002 26.3048 25.4722 26.2187 25.6019 26.1531C25.9912 25.9379 26.3576 25.7003 26.5957 25.3323C26.6389 25.2891 26.7037 25.2454 26.7677 25.2019C26.8336 25.1587 26.9629 25.1592 26.9842 25.0942C27.0064 25.0515 26.9416 24.9424 26.8981 24.8776C26.9834 24.8344 27.0709 24.7483 27.2435 24.6611C27.1776 24.791 27.1573 24.8774 27.1138 24.9646L27.22 25.0715C27.4152 24.9206 27.7173 24.7483 27.912 24.6187C27.912 24.5974 27.8043 24.5118 27.8043 24.5118C27.6752 24.5774 27.4805 24.6846 27.2869 24.7718C27.3277 24.7062 27.3277 24.6624 27.352 24.6411C27.6533 24.4464 27.9554 24.2523 28.28 24.0998C29.0352 23.7547 29.792 23.4083 30.5482 23.084C30.6778 23.0184 30.8525 23.0627 31.0029 23.0627C31.0669 23.0627 31.1096 23.0624 31.1749 23.0414C31.5197 22.9328 31.8667 22.8248 32.2122 22.7379C32.3673 22.6955 32.5278 22.6734 32.6885 22.6734ZM31.8477 22.9952C31.6104 23.1043 31.4163 23.1899 31.2216 23.2768C31.2216 23.2982 31.1133 23.4715 31.1339 23.4715C31.2421 23.4502 31.4797 23.2771 31.6093 23.255C31.6741 23.255 31.7611 23.2763 31.8267 23.2992C31.8267 23.2123 31.8269 23.1248 31.8477 22.9952ZM47.4691 26.6782C47.6851 26.959 47.9224 27.2198 48.0736 27.499C48.5712 28.4086 49.2187 29.188 49.8237 30.0099C50.3427 30.7243 50.8179 31.5027 51.2941 32.2384C51.8771 33.1251 52.4381 34.0112 53.0216 34.8982C53.4536 35.5696 53.9091 36.2406 54.3605 36.8902C54.7712 37.4728 55.2043 38.036 55.6363 38.5995C56.0024 39.0968 56.3917 39.5947 56.7587 40.0923C57.1912 40.6982 57.6232 41.303 58.0557 41.8878C58.2709 42.1899 58.5091 42.4923 58.7453 42.7955C58.8768 42.968 59.0704 43.1 59.2 43.2067C59.1702 43.2073 59.1407 43.2 59.1147 43.1854C59.1805 43.2715 59.2219 43.3366 59.2661 43.38C59.5043 43.5099 59.5253 43.6395 59.3957 43.8347L59.3973 43.8294C59.3763 43.8726 59.3317 43.9163 59.3112 43.9606C59.2891 43.9163 59.2891 43.8518 59.268 43.764C59.1384 44.1112 58.8573 43.9379 58.6627 43.9379C57.4971 43.9592 56.308 43.9592 55.1408 43.9592C54.0176 43.9592 52.8731 43.9595 51.7499 43.9806C51.3819 43.9806 50.9925 44.067 50.6245 44.0894C49.7397 44.1323 48.8536 44.155 47.9677 44.1755C47.9019 44.1755 47.8386 44.0686 47.7304 43.9816C47.709 44.0248 47.6637 44.0902 47.5997 44.1763C47.5765 44.1336 47.5347 44.0907 47.4912 44.0259C47.4736 44.0848 47.4515 44.1423 47.4251 44.1979H47.3624C47.3192 43.8958 47.2328 43.6147 47.2328 43.311C47.2328 42.6624 47.2984 42.0147 47.3189 41.3643C47.3411 41.0622 47.3189 40.7808 47.3189 40.4984C47.4061 40.564 47.4709 40.6083 47.5573 40.6715C47.5955 40.5974 47.6388 40.5259 47.6867 40.4576C47.6867 40.4576 47.6435 40.4363 47.5997 40.3923C47.6405 40.371 47.6859 40.3267 47.6859 40.3054C47.7069 40.2398 47.7512 40.1747 47.7512 40.132C47.7512 39.98 47.7072 39.8507 47.6859 39.7219C47.7069 39.7219 47.7283 39.7222 47.7512 39.7006L47.8797 40.3491H47.9459C47.8589 40.199 48.1397 40.0678 47.9026 39.8952C47.8813 39.8739 47.9232 39.7435 47.9232 39.6787C47.8573 39.5499 47.8165 39.42 47.7509 39.2467C47.7723 39.2254 47.8373 39.2035 47.9021 39.1814C47.816 39.1384 47.7507 39.0958 47.6859 39.0744C47.9019 38.879 47.9019 38.7704 47.7072 38.5544C47.7517 38.5331 47.7944 38.5331 47.7944 38.5136C47.7944 38.3182 47.7944 38.124 47.7517 37.931C47.7083 37.7126 47.8176 37.4547 47.4925 37.3232C47.512 37.3847 47.5409 37.4427 47.5784 37.4952C47.5784 37.4952 47.5131 37.5166 47.4491 37.5614C47.1683 37.3011 47.3416 36.9534 47.2757 36.5651C47.4269 36.6083 47.5352 36.652 47.6429 36.6963C47.5995 36.5435 47.492 36.371 47.4272 36.1763H47.3392V34.7478C47.3392 34.7691 47.4907 34.7691 47.5776 34.792C47.5776 34.7707 47.5979 34.7483 47.5979 34.7259C47.5322 34.6398 47.4467 34.5534 47.3605 34.4451L47.4037 34.4019C47.2315 34.1867 47.3179 33.8851 47.3179 33.8192V32.3046C47.5347 32.5216 47.2109 32.8019 47.5344 32.9315V32.716H47.5117C47.4904 32.3918 47.4904 32.0675 47.4691 31.7424H47.4261C47.404 31.7867 47.404 31.8075 47.3819 31.8512H47.3392L47.4691 26.6782ZM11.0648 28.4475C10.8072 28.7504 10.569 29.0539 10.3312 29.3552H10.3285C10.3712 29.3766 10.4354 29.5291 10.48 29.5726C10.7173 29.2483 11.0416 28.8374 11.28 28.5336C11.2576 28.5123 11.0853 28.4688 11.0648 28.4475ZM9.61732 29.5083C9.48745 29.7022 9.16452 30.0494 9.03465 30.2438C9.05598 30.2651 9.29332 30.1574 9.31465 30.1803C9.44425 29.9856 9.57385 29.7686 9.70345 29.5734C9.66105 29.552 9.63945 29.5294 9.61732 29.5083ZM10.0693 29.8318C9.94052 29.9206 9.81145 30.0291 9.68158 30.1152C9.72478 30.1579 9.72478 30.1811 9.72478 30.224C9.55252 30.2027 9.48665 30.2894 9.40052 30.5256C9.37918 30.5912 9.27065 30.6123 9.16238 30.6976C9.14105 30.7419 9.11998 30.851 9.07625 30.9584L9.09785 30.9798C9.06651 31.0085 9.02994 31.031 8.99012 31.0459C8.86025 31.1747 8.70852 31.284 8.57892 31.4128C8.55758 31.4784 8.53625 31.5427 8.53625 31.6075C8.68798 31.4563 8.94665 31.1747 9.14132 31.0014L9.16372 31.0227C9.25012 30.8928 9.31492 30.764 9.40212 30.6342C9.42265 30.6555 9.42265 30.6766 9.44478 30.6995C9.37918 30.872 9.31492 31.0662 9.25012 31.2395C9.20478 31.2608 9.13972 31.3051 9.13972 31.2827C9.05358 31.3483 8.98852 31.4334 8.90132 31.4982L8.51358 31.7568C8.29758 31.9515 8.08158 32.1243 7.84318 32.3195C7.69225 32.5576 7.54185 32.7736 7.36772 33.0552C7.62798 32.9896 7.69252 33.0995 7.67118 33.316C7.97332 33.3587 7.99518 33.1214 8.08158 32.948C8.10292 32.904 8.12478 32.8166 8.16772 32.7952C8.36238 32.6227 8.57838 32.4718 8.79438 32.2987C8.83785 32.2555 8.83785 32.167 8.83785 32.103C8.83785 32.0816 8.72852 32.0816 8.66372 32.0598C8.85838 31.843 9.13945 31.4771 9.33332 31.239C9.44185 31.1734 9.54985 31.0856 9.54985 31.0208C9.53225 30.8222 9.63518 30.7446 9.77065 30.6739C9.66985 31.1414 9.38665 31.5411 9.09865 31.6232C9.18478 31.6664 9.27118 31.7107 9.33678 31.6894C9.40078 31.668 9.44372 31.5576 9.48718 31.4936L10.0698 30.6504L10.2653 30.3251L10.1792 30.2382L10.1784 30.2408C10.0922 30.392 10.0056 30.5219 9.91945 30.6739L9.84558 30.6366C9.84798 30.6352 9.85038 30.6339 9.85278 30.6312C9.76585 30.5656 9.74345 30.5022 9.74345 30.4808L9.74425 30.4782C9.76718 30.4126 9.81012 30.3483 9.85358 30.2835C9.89652 30.2835 9.96078 30.2622 9.96078 30.2622C10.0488 30.111 10.0485 30.0024 10.1346 29.8728C10.1133 29.8515 10.0917 29.8539 10.0693 29.8318ZM47.5363 32.9022V32.9235C47.5584 32.9448 47.5603 32.9448 47.5789 32.9251C47.5579 32.9251 47.5578 32.924 47.5363 32.9022ZM47.5363 32.9454C47.4731 32.9667 47.4075 32.9667 47.3205 32.9886C47.4264 33.0288 47.5315 33.052 47.5363 33.0928V32.9454ZM44.3592 36.8848C44.316 39.3512 44.5973 41.7736 44.9208 44.2187C42.48 44.3048 39.9944 44.3907 37.4888 44.4779C38.46 44.0672 39.2603 43.4835 39.9936 42.812C40.1029 42.7038 40.2107 42.5966 40.3405 42.5086C41.2485 41.947 41.917 41.168 42.5229 40.3027C43.2141 39.3078 43.668 38.1822 44.2304 37.1222C44.2685 37.0405 44.3115 36.9613 44.3592 36.8848ZM47.384 37.0806C47.4187 37.1503 47.4478 37.2227 47.4709 37.2971C47.5776 37.2758 47.6221 37.2758 47.6648 37.2539C47.6648 37.2326 47.6645 37.2115 47.6864 37.1886C47.6224 37.1672 47.536 37.124 47.384 37.0806ZM47.4467 37.2771C47.444 37.2771 47.4384 37.2824 47.4275 37.2931L47.4283 37.2958C47.4488 37.2958 47.4709 37.3171 47.4709 37.3171L47.4496 37.2931C47.4496 37.2824 47.4493 37.2771 47.4467 37.2771ZM3.35332 37.3614C3.31038 37.3614 3.17998 37.427 3.15865 37.4483C3.24505 37.6643 3.35332 37.9027 3.43972 38.1195C3.46078 38.0982 3.59038 38.0334 3.61172 38.0334C3.52505 37.8174 3.43918 37.5792 3.35332 37.3614ZM2.74665 38.2491C2.68265 38.3576 2.61758 38.4646 2.63998 38.5499C2.63998 38.6147 2.74718 38.679 2.81278 38.7446C2.81332 38.7232 2.83358 38.7022 2.85545 38.6819C2.81278 38.5302 2.79092 38.4003 2.74665 38.2491ZM60.4989 38.2704C60.4989 38.3134 60.5203 38.3766 60.4989 38.4208V38.2704ZM3.87012 38.7462C3.84878 38.7462 3.69758 38.811 3.67625 38.8331C3.84852 39.2 4.02105 39.5904 4.19358 39.9582C4.21572 39.9582 4.38905 39.871 4.38905 39.871C4.21518 39.5016 4.10825 39.091 3.87012 38.7462ZM3.43892 39.6112C3.43892 39.6966 3.33012 39.6752 3.33012 39.7616C3.20212 39.7616 3.09385 39.7403 2.98585 39.7403C2.96452 39.7616 3.05065 39.892 3.07278 39.9142H3.52585C3.52585 39.8048 3.50505 39.7192 3.50505 39.6107L3.43892 39.6112ZM23.3136 40.4544C23.552 40.8224 23.7909 41.1688 24.0496 41.5136L24.0288 41.535C23.9834 41.5136 23.9184 41.492 23.8757 41.4488L23.3576 40.6688C23.3149 40.6048 23.2904 40.5408 23.3136 40.4544ZM47.4283 41.6232C47.4072 41.8827 47.3843 42.0782 47.3843 42.2726C47.3843 42.3158 47.428 42.4014 47.4504 42.4014C47.4931 42.4254 47.5789 42.38 47.6224 42.3606C47.6437 42.3392 47.6651 42.2958 47.6651 42.2736C47.6003 42.2294 47.5371 42.2083 47.4715 42.1632C47.8819 41.9472 47.4709 41.8392 47.4283 41.6232ZM9.79198 53.8678C10.0277 54.128 10.2659 54.3878 10.5032 54.6694C10.3733 54.6038 10.2221 54.5608 10.1581 54.4736C10.0069 54.3011 9.87785 54.1062 9.72665 53.9336L9.79198 53.8678ZM10.6987 54.6259C10.7645 54.7342 10.8069 54.864 10.8709 54.9939C10.5688 54.9726 10.4168 54.8419 10.5032 54.6694C10.5688 54.648 10.6349 54.6478 10.6987 54.6259ZM51.8584 57.9384C51.6842 57.9792 51.5544 58.0027 51.4477 58.0454C51.4037 58.1323 51.36 58.1966 51.3165 58.2827C51.3387 58.2827 51.3603 58.304 51.3827 58.3259C51.5125 58.196 51.6627 58.0888 51.8584 57.9384ZM50.7531 58.5411C50.5152 58.6931 50.2565 58.844 50.0184 58.995C50.0397 59.0163 50.0397 59.0398 50.0627 59.0611C50.3648 58.9963 50.6029 58.844 50.8408 58.6718C50.8197 58.6286 50.7752 58.5819 50.7531 58.5411ZM40.1701 62.6544C39.1765 62.9352 38.8517 62.9776 38.7435 62.8264C39.2405 62.7608 39.6957 62.7182 40.1701 62.6544ZM38.6989 62.8483C38.7211 62.8912 38.7211 62.9342 38.7421 62.9768C38.6125 62.9768 38.5261 63.0216 38.4179 63.0422C38.1165 63.1078 37.7915 63.151 37.4893 63.1944C37.3808 63.2158 37.2512 63.3246 37.2085 63.1291C37.1653 63.1504 37.1216 63.1504 37.0789 63.1734C37.1856 63.4968 37.4464 63.2366 37.6624 63.3664C37.1861 63.432 36.7346 63.4755 36.28 63.5395V63.4966C36.4112 63.4752 36.5613 63.4528 36.6904 63.4304V63.3662C36.4752 63.3448 36.2592 63.323 36.0416 63.323C35.9784 63.323 35.8909 63.4104 35.8261 63.4318C35.7397 63.4531 35.6536 63.475 35.5453 63.475C35.1781 63.4963 34.812 63.4963 34.4653 63.5179C34.4432 63.5179 34.3997 63.4966 34.3784 63.4966V63.4304C35.8259 63.2366 37.2514 63.043 38.6989 62.8483ZM34.1837 63.4091V63.4726C33.7831 63.5368 33.3795 63.5801 32.9744 63.6022V63.5387C33.3851 63.496 33.7733 63.4518 34.1837 63.4091Z" fill="#E7ECF1"/>
</g>
<defs>
<clipPath id="clip0_16_128">
<rect width="64" height="64" fill="white" transform="translate(0.5)"/>
</clipPath>
</defs>
</svg>
