<svg width="65" height="64" viewBox="0 0 65 64" fill="none" xmlns="http://www.w3.org/2000/svg">
<g clip-path="url(#clip0_15_20)">
<path d="M63.0311 39.2608C62.9946 39.1491 62.9441 39.0424 62.881 38.9432C62.5103 38.2413 61.6095 38.0317 60.1946 38.3243C55.7858 39.2339 54.0786 38.6741 53.4597 38.2733C57.0383 32.8115 59.9797 26.2147 61.5693 20.0608C62.293 17.2589 63.6978 10.6643 61.8951 7.4432C61.7799 7.22273 61.6453 7.01301 61.4927 6.81654C58.0543 2.42294 53.0079 0.0661371 46.8991 0.00133708C42.9133 -0.0407963 39.5111 0.92427 38.5895 1.27974C38.133 1.19454 37.6743 1.12198 37.2138 1.06214C36.0594 0.853097 34.8898 0.739115 33.7167 0.721337C30.5642 0.67227 27.8399 1.42587 25.5839 2.96294C23.2978 2.10667 12.8138 -1.42373 6.32553 3.17307C2.7018 5.74027 1.029 10.3288 1.35326 16.8115C1.46233 18.9928 2.705 25.7021 4.66606 32.1277C5.8922 36.1451 7.16926 39.3328 8.48846 41.6797C9.96313 44.3309 11.4909 45.9285 13.0599 46.4517C14.253 46.8493 16.0805 46.836 18.0149 44.5107C20.1514 41.9413 22.2557 39.6419 23.2005 38.6256C24.3607 39.2536 25.6175 39.5923 26.9071 39.6315C26.9074 39.6351 26.9077 39.6388 26.9082 39.6424C26.6836 39.9099 26.4639 40.1814 26.249 40.4568C25.3453 41.604 25.1573 41.8427 22.2485 42.4416C21.4213 42.6123 19.2234 43.0653 19.1914 44.6056C19.1847 44.932 19.2791 45.2213 19.4365 45.4771C20.0415 46.6053 21.8941 47.1029 22.1431 47.1653C25.7018 48.0547 28.8215 47.4107 31.1335 45.3555C31.0882 51.3048 31.3402 57.1352 32.0546 58.9219C32.6445 60.3963 34.0861 64.0005 38.6391 64C39.3071 64 40.0426 63.9224 40.8514 63.7491C45.6031 62.7301 47.6666 60.6301 48.4647 56C48.8655 53.6781 49.5357 48.3325 49.9015 45.0635C49.9466 44.876 49.9967 44.7416 50.0535 44.7003C50.0554 44.6989 50.2394 44.5747 51.1927 44.7821C51.2317 44.7906 51.2712 44.7966 51.3109 44.8003L51.9879 44.8597L52.0277 44.8624C54.2858 44.9648 57.1247 44.4821 58.7775 43.7136C60.4943 42.9168 63.5927 40.9608 63.0311 39.2608ZM6.52873 31.6707C4.54606 25.1752 3.38766 18.6437 3.29593 16.8123C3.00633 11.0219 4.4082 6.9912 7.46206 4.83174C12.3599 1.3688 20.3682 3.3896 23.7501 4.48507C23.7415 4.4936 23.7325 4.50134 23.7239 4.51014C18.3271 9.9608 18.4551 19.2728 18.4685 19.8421C18.4679 20.0616 18.4861 20.3725 18.5117 20.8003C18.6045 22.3664 18.7773 25.2813 18.3157 28.5827C17.8866 31.6504 18.8322 34.6531 20.9098 36.8205C21.1247 37.0448 21.3493 37.2555 21.5813 37.4536C20.6565 38.444 18.6469 40.6339 16.5079 43.2072C14.9941 45.0272 13.9487 44.6784 13.605 44.5637C12.5599 44.2152 11.437 42.9981 10.3034 41.0376C9.02446 38.8003 7.73406 35.6197 6.52873 31.6707ZM22.5479 45.2363C22.0917 45.1221 21.6757 44.9344 21.3954 44.7637C21.6325 44.6587 22.0285 44.5232 22.6842 44.388C26.1063 43.6837 26.6349 43.1864 27.789 41.7208C28.0535 41.3848 28.3533 41.0043 28.7685 40.5405C28.8578 40.4404 28.9248 40.3224 28.965 40.1944C29.4205 39.7909 29.6914 39.9013 30.1301 40.0832C30.5461 40.2555 30.9509 40.7765 31.1154 41.3504C31.193 41.6213 31.2805 42.1357 30.9949 42.5355C28.5834 45.9109 25.0706 45.8672 22.5479 45.2363ZM28.1319 34.6016L27.9919 34.9776C27.6373 35.9285 27.3074 36.8125 27.1029 37.6523C25.3231 37.6467 23.5914 36.8864 22.2749 35.5125C20.6005 33.7656 19.8399 31.3355 20.1882 28.8448C20.6757 25.3571 20.4957 22.32 20.3989 20.6885C20.3855 20.46 20.3735 20.26 20.3663 20.1021C21.1549 19.4032 24.8087 17.4456 27.4141 18.0424C28.6031 18.3149 29.3277 19.1243 29.6287 20.5171C31.1877 27.7272 29.8351 30.7323 28.7482 33.1472C28.5242 33.6448 28.3127 34.1149 28.1319 34.6016ZM47.7685 46.7949C47.7234 47.2664 47.673 47.7976 47.6037 48.384L47.2143 49.5528C47.1834 49.6455 47.167 49.7423 47.1658 49.84C47.1501 51.1059 47.0218 51.5704 46.8591 52.1581C46.6901 52.7693 46.4983 53.4624 46.3807 54.9781C46.0874 58.7496 44.0389 60.916 39.9349 61.7955C35.8935 62.6624 35.1767 60.4707 34.545 58.5376C34.4803 58.335 34.4119 58.1335 34.3399 57.9333C33.7655 56.3712 33.8303 54.1683 33.9202 51.1197C33.9642 49.6232 33.8538 46.0496 33.0397 44.0632C33.0514 43.2813 33.0679 42.4875 33.0903 41.6851C33.093 41.5834 33.0793 41.482 33.0495 41.3848C33.0237 41.1974 32.9846 41.012 32.9325 40.8301C32.6055 39.688 31.809 38.7325 30.8533 38.3365C30.4735 38.1792 29.7765 37.8907 28.9391 38.1048C29.1178 37.3688 29.4274 36.5381 29.7631 35.6384L29.9042 35.2597C30.0629 34.8331 30.2615 34.3912 30.4722 33.9232C31.6095 31.3963 33.1671 27.9357 31.4765 20.1173C30.8434 17.1891 28.7287 15.7592 25.5234 16.0912C23.6015 16.2901 21.8437 17.0656 20.9666 17.5101C20.7908 17.5993 20.6167 17.6918 20.4445 17.7877C20.6893 14.8373 21.6141 9.32347 25.073 5.83494C25.3299 5.57604 25.5999 5.33039 25.8818 5.09894C26.0218 5.07164 26.1537 5.01292 26.2677 4.9272C28.2741 3.4056 30.7863 2.65894 33.7397 2.7072C34.8306 2.72507 35.8775 2.7976 36.8709 2.9232C42.0415 3.86827 45.5213 6.78134 47.6333 9.27707C49.8047 11.8432 50.9805 14.4277 51.4498 15.8219C47.9213 15.4629 45.5207 16.16 44.3039 17.8992C41.657 21.6829 45.7519 29.0269 47.7202 32.5563C48.081 33.2032 48.3927 33.7621 48.4906 33.9997C49.1314 35.5531 49.9613 36.5899 50.5671 37.3469C50.7527 37.5789 50.933 37.804 51.0698 38.0003C50.001 38.3083 48.081 39.0203 48.2559 42.5789C48.2231 42.9957 48.1431 43.7707 48.0335 44.7517C47.9106 45.3056 47.8463 45.9792 47.7685 46.7949ZM50.1431 42.472C50.0351 40.2544 50.8607 40.0227 51.7343 39.7773C51.8552 39.7442 51.9752 39.7081 52.0943 39.6691C52.207 39.7689 52.3266 39.8607 52.4522 39.9437C53.973 40.9477 56.6717 41.0672 60.4703 40.3021C59.9327 40.7739 59.0866 41.3672 57.9282 41.9051C56.8354 42.4125 55.0063 42.7931 53.2687 42.8747C51.3495 42.9643 50.373 42.6595 50.1431 42.472ZM51.6618 17.7488C51.6461 18.6843 51.5173 19.5333 51.3807 20.42C51.2341 21.3736 51.0821 22.3597 51.0437 23.5565C51.0058 24.7213 51.1514 25.9323 51.2922 27.1035C51.5765 29.4688 51.8682 31.9043 50.7389 34.3072C50.5514 33.9749 50.3843 33.6315 50.2386 33.2789C50.0981 32.9387 49.7935 32.392 49.3717 31.6357C47.7301 28.6915 43.8853 21.7968 45.8535 18.9835C46.8655 17.5363 49.429 17.4739 51.6618 17.7488ZM52.2709 36.452C52.1956 36.3561 52.1197 36.2607 52.0434 36.1656L51.9487 36.0472C53.8853 32.8485 53.5066 29.684 53.1695 26.8779C53.0311 25.7264 52.9005 24.6389 52.9335 23.6176C52.9679 22.5347 53.1111 21.6061 53.2495 20.708C53.4199 19.6013 53.593 18.4565 53.5453 17.1067C53.581 16.9651 53.5954 16.7979 53.5767 16.5995C53.4549 15.3048 51.977 11.4315 48.965 7.9248C47.3447 6.03867 44.9927 3.93227 41.7946 2.48614C43.1949 2.20187 45.0821 1.94347 47.193 1.9904C52.6637 2.112 56.9919 4.15974 60.0575 8.0768C60.1227 8.16184 60.1821 8.2511 60.2354 8.344C62.1637 11.9589 59.4989 25.0776 52.2709 36.452ZM28.7599 20.1421C28.6933 20.6205 27.9362 21.2688 27.1037 21.2688C27.0315 21.2688 26.9594 21.2639 26.8879 21.2539C26.3885 21.1845 25.8839 20.8699 25.5389 20.4123C25.4167 20.2509 25.2181 19.9376 25.2575 19.6539C25.2722 19.5469 25.3271 19.3912 25.5042 19.2571C25.8194 19.0187 26.4423 18.9301 27.1298 19.0259C27.9733 19.1435 28.8434 19.5427 28.7599 20.1421ZM49.9079 19.0451C49.9375 19.2563 49.7773 19.5811 49.4997 19.8723C49.3175 20.0635 48.9343 20.3952 48.4119 20.4675C48.3457 20.4767 48.2788 20.4813 48.2119 20.4813C47.4293 20.4813 46.7682 19.8563 46.7167 19.4901C46.6527 19.0195 47.421 18.6619 48.213 18.5515C49.005 18.4411 49.8426 18.5749 49.9079 19.0451Z" fill="#E7ECF1"/>
</g>
<defs>
<clipPath id="clip0_15_20">
<rect width="64" height="64" fill="white" transform="translate(0.206055)"/>
</clipPath>
</defs>
</svg>
