<svg width="65" height="64" viewBox="0 0 65 64" fill="none" xmlns="http://www.w3.org/2000/svg">
<g clip-path="url(#clip0_15_6)">
<path d="M38.1527 32.0107C38.1527 33.5916 37.5249 35.1079 36.4072 36.226C35.2896 37.3441 33.7737 37.9727 32.1927 37.9734C30.6113 37.9734 29.0947 37.3452 27.9765 36.2269C26.8583 35.1087 26.2301 33.5921 26.2301 32.0107C26.2301 30.4298 26.8579 28.9135 27.9755 27.7954C29.0932 26.6773 30.6091 26.0487 32.1901 26.048C33.7715 26.048 35.2881 26.6762 36.4063 27.7945C37.5245 28.9127 38.1527 30.4293 38.1527 32.0107ZM45.2141 3.50403C41.6247 3.50403 36.9287 6.06403 32.1794 10.496C27.4327 6.08803 22.7341 3.55736 19.1474 3.55736C18.0541 3.55736 17.0594 3.80536 16.1981 4.29869C12.5314 6.41336 11.7101 13.0027 13.6034 21.272C5.48606 23.7787 0.206055 27.7867 0.206055 32.0107C0.206055 36.2507 5.51272 40.2694 13.6541 42.7574C11.7767 51.0587 12.6141 57.6587 16.2887 59.7707C17.1421 60.2694 18.1287 60.504 19.2274 60.504C22.8141 60.504 27.5127 57.944 32.2621 53.5067C37.0087 57.9174 41.7074 60.448 45.2941 60.448C46.3874 60.448 47.3821 60.208 48.2434 59.7147C51.9074 57.6027 52.7314 51.0134 50.8381 42.7414C58.9261 40.256 64.2061 36.24 64.2061 32.0107C64.2061 27.7707 58.8994 23.752 50.7581 21.2587C52.6354 12.9654 51.7981 6.36003 48.1234 4.24536C47.2754 3.75469 46.2914 3.50669 45.2141 3.50403ZM45.2007 6.4107V6.4267C45.8007 6.4267 46.2834 6.54403 46.6887 6.76536C48.4647 7.78403 49.2354 11.6587 48.6354 16.6427C48.4914 17.8694 48.2567 19.1627 47.9687 20.4827C45.4087 19.8534 42.6194 19.3707 39.6834 19.0587C37.9234 16.6454 36.0967 14.4534 34.2567 12.5334C38.5021 8.58669 42.4887 6.42136 45.2034 6.41336L45.2007 6.4107ZM19.1474 6.46403C21.8461 6.46403 25.8514 8.61869 30.1074 12.544C28.2781 14.464 26.4541 16.6427 24.7207 19.056C21.7687 19.368 18.9767 19.8507 16.4194 20.4907C16.1207 19.184 15.8994 17.92 15.7421 16.704C15.1287 11.7227 15.8861 7.85069 17.6461 6.81869C18.1527 6.57869 18.7127 6.47736 19.1474 6.46403ZM32.1661 14.5974C33.3794 15.8454 34.5927 17.2427 35.7927 18.768C34.6194 18.7147 33.4194 18.6774 32.2061 18.6774C30.9794 18.6774 29.7661 18.704 28.5794 18.768C29.7527 17.2427 30.9661 15.848 32.1661 14.5974ZM32.2061 21.6C34.1794 21.6 36.1447 21.6907 38.0781 21.848C39.1607 23.4 40.2167 25.056 41.2327 26.808C42.2247 28.5147 43.1261 30.248 43.9474 31.9974C43.1261 33.744 42.2247 35.4907 41.2461 37.1974C40.2327 38.9574 39.1847 40.632 38.0994 42.184C36.1581 42.352 34.1901 42.4454 32.2061 42.4454C30.2327 42.4454 28.2674 42.352 26.3341 42.1974C25.2514 40.6454 24.1954 38.9867 23.1794 37.2374C22.1874 35.5307 21.2861 33.7974 20.4647 32.048C21.2727 30.296 22.1874 28.5467 23.1661 26.8374C24.1794 25.0774 25.2274 23.408 26.3127 21.856C28.2541 21.6854 30.2221 21.5947 32.2061 21.5947V21.6ZM22.5127 22.2774C21.8727 23.2827 21.2327 24.312 20.6354 25.3707C20.0354 26.4107 19.4754 27.456 18.9421 28.5014C18.2354 26.752 17.6354 25.008 17.1394 23.3094C18.8461 22.9094 20.6461 22.552 22.5127 22.2774ZM41.8727 22.2774C43.7261 22.552 45.5127 22.8907 47.2221 23.3094C46.7421 24.9947 46.1421 26.728 45.4621 28.464C44.9287 27.424 44.3687 26.376 43.7554 25.3334C43.1554 24.288 42.5154 23.2694 41.8754 22.2774H41.8727ZM50.0407 24.0774C51.3314 24.4774 52.5581 24.9227 53.7074 25.4054C58.3261 27.3787 61.3127 29.96 61.3127 32.008C61.2994 34.056 58.3127 36.648 53.6941 38.608C52.5741 39.088 51.3474 39.52 50.0807 39.9227C49.3341 37.368 48.3581 34.7067 47.1474 31.976C48.3474 29.264 49.3074 26.616 50.0407 24.072V24.0774ZM14.3207 24.088C15.0621 26.648 16.0407 29.3067 17.2541 32.0347C16.0541 34.7467 15.0887 37.3947 14.3581 39.9387C13.0674 39.5387 11.8407 39.0907 10.7047 38.6054C6.08605 36.64 3.09939 34.056 3.09939 32.008C3.09939 29.96 6.08605 27.3627 10.7047 25.4054C11.8247 24.9254 13.0514 24.4934 14.3207 24.088ZM45.4621 35.5014C46.1687 37.2534 46.7687 39 47.2647 40.696C45.5581 41.1147 43.7554 41.4694 41.8887 41.736C42.5287 40.736 43.1687 39.704 43.7687 38.648C44.3687 37.608 44.9261 36.5467 45.4621 35.5014ZM18.9421 35.5547C19.4754 36.6 20.0354 37.6427 20.6487 38.688C21.2621 39.728 21.8887 40.7467 22.5287 41.736C20.6754 41.464 18.8887 41.1227 17.1794 40.7067C17.6594 39.0267 18.2621 37.288 18.9394 35.552L18.9421 35.5547ZM47.9927 43.52C48.2914 44.8347 48.5261 46.1014 48.6701 47.3147C49.2834 52.296 48.5261 56.168 46.7661 57.2027C46.3741 57.4427 45.8647 57.544 45.2647 57.544C42.5661 57.544 38.5607 55.392 34.3047 51.464C36.1341 49.544 37.9581 47.368 39.6914 44.9574C42.6434 44.6427 45.4354 44.16 47.9927 43.52ZM16.4461 43.5467C19.0061 44.1707 21.7954 44.6534 24.7314 44.9654C26.4914 47.3787 28.3181 49.5707 30.1581 51.488C25.9047 55.4427 21.9127 57.608 19.1981 57.608C18.6114 57.5947 18.1154 57.4747 17.7234 57.256C15.9474 56.2427 15.1767 52.3654 15.7767 47.3814C15.9207 46.1547 16.1581 44.864 16.4461 43.5467ZM28.6061 45.2534C29.7794 45.3067 30.9794 45.344 32.1927 45.344C33.4194 45.344 34.6327 45.3174 35.8194 45.2534C34.6461 46.7787 33.4327 48.1734 32.2327 49.4267C31.0194 48.1734 29.8061 46.7787 28.6061 45.2534Z" fill="#E7ECF1"/>
</g>
<defs>
<clipPath id="clip0_15_6">
<rect width="64" height="64" fill="white" transform="translate(0.206055)"/>
</clipPath>
</defs>
</svg>
