<svg width="65" height="64" viewBox="0 0 65 64" fill="none" xmlns="http://www.w3.org/2000/svg">
<g clip-path="url(#clip0_16_123)">
<path d="M32.5 0C50.172 0 64.5 14.328 64.5 32C64.5 49.672 50.172 64 32.5 64C14.828 64 0.5 49.672 0.5 32C0.5 14.328 14.828 0 32.5 0ZM26.14 42.6613C26.6067 44.3813 26.556 45.9893 26.076 47.44L25.9027 47.92C25.8387 48.0827 25.764 48.24 25.6947 48.3893C25.3213 49.1627 24.8253 49.8827 24.2147 50.5493C22.3533 52.5733 19.756 53.3413 18.6413 52.696C17.4413 51.9973 18.0387 49.136 20.1987 46.856C22.5213 44.408 25.852 42.832 25.852 42.832V42.824L26.14 42.6613ZM52.5693 13.6987C51.124 8.01067 41.6973 6.14133 32.7773 9.312C27.4733 11.1973 21.7267 14.16 17.596 18.024C12.6813 22.6133 11.9 26.6133 12.2227 28.2853C13.3613 34.1813 21.4413 38.0373 24.764 40.8987V40.9147C23.7853 41.3947 16.6147 44.992 14.9347 48.7147C13.1347 52.6347 15.2147 55.4373 16.5747 55.7947C20.7747 56.9573 25.0947 54.8347 27.4147 51.3973C29.6547 48.0347 29.4573 43.7147 28.492 41.5947C29.8147 41.2347 31.372 41.0747 33.372 41.3173C38.9747 41.9573 40.0947 45.4773 39.852 46.9173C39.612 48.3547 38.4573 49.1947 38.0547 49.4347C37.6547 49.6773 37.5347 49.7547 37.572 49.9173C37.612 50.1573 37.8147 50.1573 38.132 50.1173C38.572 50.0373 41.0547 48.9173 41.1747 46.1947C41.2947 42.7547 38.012 38.9173 32.1747 38.9947C29.7747 39.0373 28.252 39.2373 27.1747 39.6773C27.0947 39.5573 27.012 39.4773 26.8947 39.3973C23.2947 35.5173 16.6147 32.7973 16.8947 27.6373C16.9747 25.7573 17.6547 20.8 29.6947 14.8C39.5747 9.87733 47.4573 11.24 48.8173 14.24C50.772 18.5173 44.6147 26.48 34.3347 27.6373C30.4147 28.0773 28.3747 26.56 27.852 25.9973C27.2947 25.3973 27.2147 25.3573 27.0147 25.48C26.6947 25.64 26.8947 26.16 27.0147 26.48C27.3347 27.28 28.5747 28.68 30.7373 29.4C32.6147 30 37.2173 30.3573 42.7373 28.2C48.9347 25.8027 53.7747 19.12 52.3747 13.52L52.5693 13.6987Z" fill="#E7ECF1"/>
</g>
<defs>
<clipPath id="clip0_16_123">
<rect width="64" height="64" fill="white" transform="translate(0.5)"/>
</clipPath>
</defs>
</svg>
