<svg width="65" height="64" viewBox="0 0 65 64" fill="none" xmlns="http://www.w3.org/2000/svg">
<g clip-path="url(#clip0_15_14)">
<path d="M32.7034 0C32.1807 0 31.6581 0.133333 31.1887 0.408L6.10872 14.88C5.64834 15.1455 5.26598 15.5275 5.00009 15.9877C4.7342 16.4478 4.59416 16.9699 4.59406 17.5013V46.48C4.59406 47.5627 5.17006 48.5627 6.10872 49.104L21.5407 58.0213V38.4373H13.3674V33.256H35.6127V38.4373H27.4394V61.4293L31.1887 63.5947C32.1247 64.136 33.2794 64.136 34.2181 63.5947L40.3967 60.0267C39.0517 59.0401 37.9596 57.7488 37.2101 56.2587L42.0127 53.48C42.9754 55.0533 44.1621 56.3067 45.9594 56.8133L51.7567 53.464C51.4181 51.9493 49.8954 51.2693 47.5327 50.2373L46.0581 49.6027C41.8021 47.7893 38.9781 45.5173 38.9781 40.712C38.9781 36.2907 42.3514 32.92 47.6181 32.92C51.3674 32.92 54.0634 34.2267 56.0021 37.64L51.4074 40.5867C50.3967 38.7733 49.3007 38.0587 47.6181 38.0587C45.8901 38.0587 44.7914 39.152 44.7914 40.5867C44.7914 42.3547 45.8901 43.072 48.4181 44.168L49.8927 44.8C53.4554 46.328 55.9061 47.88 57.0287 50.4187L59.3034 49.104C60.2421 48.5627 60.8181 47.5627 60.8181 46.48V17.5067C60.8181 16.424 60.2421 15.4213 59.3034 14.8827L34.2181 0.408C33.7578 0.141136 33.2354 0.000400946 32.7034 0Z" fill="#E7ECF1"/>
</g>
<defs>
<clipPath id="clip0_15_14">
<rect width="64" height="64" fill="white" transform="translate(0.706055)"/>
</clipPath>
</defs>
</svg>
