<svg width="65" height="64" viewBox="0 0 65 64" fill="none" xmlns="http://www.w3.org/2000/svg">
<g clip-path="url(#clip0_15_26)">
<path d="M47.182 0.167985C46.1651 0.153926 45.1811 0.527709 44.43 1.21332H44.4273C44.3814 1.2516 44.3369 1.29163 44.294 1.33332L23.0353 24.8426L10.6273 14.6667L9.54201 13.7333C9.16768 13.4222 8.71532 13.2194 8.23397 13.147C7.75262 13.0746 7.26063 13.1354 6.81134 13.3226C6.80064 13.327 6.78998 13.3315 6.77934 13.336L1.93401 15.336C1.86423 15.3651 1.79573 15.3971 1.72867 15.432C1.68622 15.4557 1.64443 15.4806 1.60334 15.5067C1.56914 15.5255 1.53535 15.545 1.50201 15.5653C1.45846 15.5943 1.41577 15.6245 1.37401 15.656C1.34693 15.6768 1.32026 15.6981 1.29401 15.72C1.25399 15.7509 1.21487 15.7829 1.17667 15.816C1.14396 15.8445 1.11195 15.8739 1.08067 15.904C1.05149 15.9344 1.02304 15.9655 0.99534 15.9973C0.965161 16.0304 0.935818 16.0641 0.90734 16.0987C0.875135 16.1369 0.844012 16.176 0.814006 16.216C0.792046 16.2458 0.770708 16.276 0.750006 16.3067C0.720249 16.3502 0.691792 16.3947 0.664673 16.44C0.64627 16.4707 0.628489 16.5019 0.61134 16.5333C0.588778 16.5772 0.567436 16.6216 0.54734 16.6667C0.52858 16.7062 0.510796 16.7462 0.494006 16.7866C0.47887 16.8254 0.464644 16.8645 0.45134 16.904C0.436082 16.9454 0.421856 16.9872 0.408673 17.0293C0.393949 17.0778 0.38061 17.1267 0.368673 17.176C0.359052 17.2114 0.350161 17.2469 0.342006 17.2826C0.333586 17.3304 0.326472 17.3785 0.320673 17.4266C0.314221 17.471 0.308886 17.5154 0.304673 17.56C0.298052 17.6336 0.294494 17.7074 0.294006 17.7813L0.294006 46.224C0.297108 46.7476 0.45428 47.2587 0.745921 47.6935C1.03756 48.1284 1.45077 48.4677 1.93401 48.6693L6.77934 50.7066C7.23482 50.8962 7.73395 50.9557 8.22121 50.8785C8.70848 50.8012 9.16477 50.5904 9.53934 50.2693L10.6273 49.336L23.0353 39.1626L44.2967 62.6693C44.3588 62.7291 44.4228 62.787 44.4887 62.8426C44.5382 62.8884 44.5889 62.9328 44.6407 62.976C44.6913 63.0145 44.7429 63.0519 44.7953 63.088C44.8503 63.1285 44.9063 63.1676 44.9633 63.2053C45.0203 63.2405 45.0781 63.2743 45.1367 63.3066C45.1936 63.3401 45.2514 63.3721 45.31 63.4026C45.3698 63.4317 45.4302 63.4593 45.4913 63.4853C45.5529 63.5136 45.6151 63.5402 45.678 63.5653C45.7423 63.5892 45.8072 63.6114 45.8727 63.632C45.9309 63.6511 45.9896 63.6689 46.0487 63.6853C46.1193 63.705 46.1904 63.7228 46.262 63.7386C46.3222 63.7525 46.3826 63.7649 46.4433 63.776C46.5098 63.7866 46.5765 63.7954 46.6433 63.8027C46.7098 63.8114 46.7765 63.8185 46.8433 63.824C46.9082 63.8282 46.9731 63.8309 47.038 63.832C47.1064 63.8337 47.1749 63.8337 47.2433 63.832C47.3128 63.8293 47.3821 63.8249 47.4513 63.8186C47.511 63.8138 47.5706 63.8075 47.63 63.8C47.7077 63.7889 47.7851 63.7756 47.862 63.76C47.9156 63.7504 47.9689 63.7397 48.022 63.728C48.0936 63.7104 48.1648 63.6908 48.2353 63.6693C48.2962 63.653 48.3567 63.6352 48.4167 63.616C48.4795 63.5927 48.5418 63.5678 48.6033 63.5413C48.6844 63.511 48.7644 63.4781 48.8433 63.4426L62.0273 57.104C62.511 56.8707 62.9426 56.5424 63.2967 56.1386C63.3814 56.043 63.4615 55.9433 63.5367 55.84C63.5402 55.8338 63.5438 55.8275 63.5473 55.8213C63.6239 55.7138 63.6951 55.6025 63.7607 55.488C63.8206 55.3839 63.8757 55.2771 63.926 55.168C63.9341 55.1529 63.9421 55.1378 63.95 55.1226C63.9892 55.028 64.0248 54.932 64.0567 54.8346C64.0704 54.8019 64.0838 54.769 64.0967 54.736C64.1269 54.6419 64.1535 54.5467 64.1767 54.4506C64.1851 54.4179 64.1931 54.385 64.2007 54.352C64.2188 54.2636 64.2339 54.1747 64.246 54.0853C64.2539 54.041 64.261 53.9965 64.2673 53.952C64.2751 53.8722 64.2804 53.7921 64.2833 53.712C64.2888 53.641 64.2924 53.5698 64.294 53.4986V10.512V10.504C64.2943 10.4755 64.2943 10.4471 64.294 10.4187C64.2918 10.285 64.2829 10.1515 64.2673 10.0187C64.1857 9.35242 63.9378 8.71745 63.5463 8.17221C63.1549 7.62697 62.6325 7.189 62.0273 6.89865L48.8433 0.559985C48.3248 0.312599 47.7591 0.17981 47.1847 0.170652L47.182 0.167985ZM48.294 18.4533V45.5546L31.766 32.008L48.294 18.4533ZM8.29401 22.864L16.558 32.0027L8.29134 41.1386L8.29401 22.864Z" fill="#E7ECF1"/>
</g>
<defs>
<clipPath id="clip0_15_26">
<rect width="64" height="64" fill="white" transform="translate(0.294006)"/>
</clipPath>
</defs>
</svg>
