<svg width="65" height="64" viewBox="0 0 65 64" fill="none" xmlns="http://www.w3.org/2000/svg">
<g clip-path="url(#clip0_15_32)">
<path d="M22.596 28.208L23.9613 5.12269C23.9722 4.94205 24.0428 4.77015 24.162 4.63402C24.2813 4.49789 24.4424 4.40526 24.62 4.37069L46.8387 0.0160261C46.9759 -0.0109214 47.1177 -0.00215157 47.2506 0.0414941C47.3835 0.0851397 47.5029 0.162196 47.5974 0.265271C47.6919 0.368345 47.7583 0.493977 47.7903 0.630113C47.8223 0.766249 47.8187 0.908319 47.78 1.04269L43.6253 15.4507C43.5868 15.5848 43.5833 15.7266 43.6152 15.8624C43.647 15.9983 43.7132 16.1237 43.8074 16.2267C43.9015 16.3297 44.0205 16.4068 44.153 16.4507C44.2855 16.4946 44.427 16.5038 44.564 16.4774L50.932 15.2507C51.0818 15.2214 51.2369 15.2347 51.3795 15.2891C51.5222 15.3436 51.6467 15.4369 51.7389 15.5586C51.8311 15.6803 51.8874 15.8254 51.9012 15.9774C51.9151 16.1295 51.886 16.2823 51.8173 16.4187L33.7107 52.552L33.3827 53.0587C33.3122 53.1734 33.2133 53.268 33.0956 53.3334C32.9779 53.3988 32.8453 53.4327 32.7107 53.432C32.2387 53.432 31.7773 53.0267 31.8973 52.448L34.8173 38.312C34.846 38.1736 34.8382 38.03 34.7947 37.8955C34.7512 37.7609 34.6734 37.64 34.5691 37.5446C34.4648 37.4491 34.3375 37.3824 34.1996 37.351C34.0617 37.3196 33.9181 37.3245 33.7827 37.3654L29.9613 38.5254C29.8261 38.5666 29.6824 38.5719 29.5444 38.5409C29.4064 38.5099 29.2789 38.4435 29.1743 38.3483C29.0697 38.2531 28.9916 38.1324 28.9477 37.9979C28.9039 37.8635 28.8957 37.7199 28.924 37.5814L30.764 28.5814C30.7919 28.447 30.7855 28.3077 30.7453 28.1765C30.7051 28.0453 30.6325 27.9263 30.5341 27.8306C30.4357 27.7349 30.3148 27.6656 30.1825 27.629C30.0503 27.5924 29.9109 27.5898 29.7773 27.6214L23.5907 29.0507C23.4672 29.0791 23.3388 29.0783 23.2157 29.0484C23.0926 29.0186 22.9781 28.9605 22.8813 28.8787C22.7846 28.7969 22.7082 28.6938 22.6582 28.5774C22.6082 28.461 22.586 28.3345 22.5933 28.208H22.596ZM62.532 7.07203L46.5907 9.97336L45.14 15.0054L50.6787 13.9387C51.1079 13.8531 51.553 13.9017 51.9538 14.0777C52.3545 14.2537 52.6913 14.5487 52.9187 14.9227C53.1116 15.2337 53.2213 15.5892 53.2372 15.9548C53.2531 16.3205 53.1746 16.6841 53.0093 17.0107L34.9 53.1467L34.8653 53.2134L34.8253 53.2747L34.5 53.7814C34.3077 54.0826 34.0429 54.3308 33.7298 54.5032C33.4167 54.6755 33.0654 54.7666 32.708 54.768C32.3843 54.7663 32.065 54.6932 31.7728 54.554C31.4806 54.4148 31.2227 54.2129 31.0173 53.9627C30.8176 53.7155 30.6757 53.4268 30.6019 53.1176C30.528 52.8085 30.5242 52.4868 30.5907 52.176L33.3347 38.8934L30.348 39.8C29.9395 39.9231 29.5037 39.9224 29.0955 39.7981C28.6874 39.6737 28.3252 39.4313 28.0547 39.1014C27.853 38.8551 27.7088 38.5669 27.6327 38.2578C27.5566 37.9487 27.5504 37.6265 27.6147 37.3147L29.2947 29.1014L23.8893 30.3494C23.5234 30.4332 23.142 30.4199 22.7827 30.3109C22.4235 30.202 22.099 30.001 21.8413 29.728C21.6416 29.5144 21.4873 29.2624 21.3878 28.9874C21.2884 28.7124 21.2458 28.42 21.2627 28.128L22.3 10.608L2.46001 7.06136C2.15433 7.0062 1.83925 7.03941 1.55179 7.15711C1.26433 7.27481 1.01643 7.4721 0.837213 7.72581C0.657994 7.97951 0.554902 8.2791 0.540046 8.58936C0.525189 8.89963 0.599187 9.20769 0.753344 9.47736L31.38 63.176C31.5231 63.4274 31.7304 63.6362 31.9807 63.7811C32.231 63.926 32.5153 64.0018 32.8045 64.0007C33.0937 63.9996 33.3774 63.9217 33.6266 63.7749C33.8758 63.6281 34.0815 63.4178 34.2227 63.1654L64.2493 9.47203C64.3999 9.20187 64.4705 8.89452 64.4531 8.58576C64.4356 8.277 64.3308 7.97955 64.1509 7.72806C63.9709 7.47656 63.7232 7.28137 63.4366 7.16523C63.15 7.04908 62.8363 7.01676 62.532 7.07203Z" fill="#E7ECF1"/>
</g>
<defs>
<clipPath id="clip0_15_32">
<rect width="64" height="64" fill="white" transform="translate(0.5)"/>
</clipPath>
</defs>
</svg>
