<svg width="64" height="64" viewBox="0 0 64 64" fill="none" xmlns="http://www.w3.org/2000/svg">
<g clip-path="url(#clip0_15_30)">
<path d="M59.1965 49.328L33.1435 64.0006V52.5726L49.376 43.6824L59.1965 49.328ZM60.9787 47.7211V17.0358L51.4448 22.5142V42.2368L60.9787 47.7211ZM4.80347 49.328L30.8565 64.0006V52.5726L14.624 43.6824L4.80347 49.328ZM3.02133 47.7211V17.0358L12.5549 22.5142V42.2368L3.02133 47.7211ZM4.1368 15.0504L30.8565 -0.000244141V11.0488L13.7387 20.423L13.6083 20.4976L4.1368 15.0504ZM59.8635 15.0504L33.1435 -0.000244141V11.0488L50.2613 20.4232L50.3917 20.4979L59.8635 15.0504ZM30.8568 49.9731L14.8419 41.207V23.8358L30.8563 33.0424L30.8568 49.9731ZM33.1435 49.9731L49.1576 41.207V23.8358L33.1435 33.0424V49.9731ZM15.9264 21.8254L32.0029 13.0214L48.08 21.8254L32.0032 31.0694L15.9264 21.8254Z" fill="#E7ECF1"/>
</g>
<defs>
<clipPath id="clip0_15_30">
<rect width="64" height="64" fill="white"/>
</clipPath>
</defs>
</svg>
