<svg width="65" height="64" viewBox="0 0 65 64" fill="none" xmlns="http://www.w3.org/2000/svg">
<g clip-path="url(#clip0_15_28)">
<path d="M0.794006 0V64H64.794V0H0.794006ZM48.498 7.704C52.3487 7.704 55.61 8.888 58.2767 11.112L55.314 15.5573C52.9433 13.928 50.722 12.8907 48.498 12.8907C46.274 12.8907 45.09 13.928 45.09 15.2613V15.4107C45.09 17.1893 46.274 17.7813 50.7193 18.9653C56.0527 20.448 59.0153 22.3733 59.0153 26.9653V27.1147C59.0153 32.448 55.0153 35.4107 49.386 35.4107C45.386 35.2613 41.386 33.7813 38.274 30.9653L41.682 26.816C44.0527 28.7413 46.57 30.0747 49.5327 30.0747C51.9033 30.0747 53.2367 29.1867 53.2367 27.5573V27.408C53.2367 25.9253 52.3487 25.1867 47.9033 24C42.57 22.6667 39.3113 21.184 39.3113 15.8507V15.7013C39.3113 10.8133 43.162 7.70133 48.4953 7.70133L48.498 7.704ZM5.53534 8.296H11.61L15.61 23.704L20.202 8.296H24.6473L29.0927 23.704L33.0927 8.296H39.314L31.7593 34.8133H26.722L22.426 19.4053L17.9807 34.8133H13.0927L5.53801 8.296H5.53534ZM6.86867 52H30.8687V56H6.86867V52Z" fill="#E7ECF1"/>
</g>
<defs>
<clipPath id="clip0_15_28">
<rect width="64" height="64" fill="white" transform="translate(0.794006)"/>
</clipPath>
</defs>
</svg>
