<svg width="62" height="39" viewBox="0 0 62 39" fill="none" xmlns="http://www.w3.org/2000/svg">
<path d="M30.358 12.2399H18.8999C14.293 12.2399 12.5211 13.3199 12.5211 17.3999V37.5599C12.5211 38.2799 13.2298 38.9999 13.9386 38.9999H17.2461C17.9549 38.9999 18.6636 38.2799 18.6636 37.5599V19.3199C18.6636 17.9999 18.8999 17.8799 20.6717 17.8799H30.358C31.1849 17.8799 31.7755 17.1599 31.7755 16.4399V13.7999C31.8936 12.8399 31.1849 12.2399 30.358 12.2399Z" fill="white" fill-opacity="0.1"/>
<path d="M55.6368 12.2398H41.4619V1.55981C41.4619 0.839808 40.7531 0.119812 40.0443 0.119812H36.7369C35.91 0.119812 35.3193 0.839808 35.3193 1.55981V37.5598C35.3193 38.2798 36.0281 38.9998 36.7369 38.9998H40.0443C40.7531 38.9998 41.4619 38.2798 41.4619 37.5598V17.8798H53.865C55.6368 17.8798 55.8731 17.9998 55.8731 19.3198V37.5598C55.8731 38.2798 56.5818 38.9998 57.2906 38.9998H60.48C61.3069 38.9998 61.8975 38.2798 61.8975 37.5598V17.3998C62.0156 13.1998 60.2437 12.2398 55.6368 12.2398Z" fill="white" fill-opacity="0.1"/>
<path d="M9.45 0H1.29938C0.590632 0 0 0.600007 0 1.32001V9.6C0 10.32 0.590632 10.92 1.29938 10.92H9.45C10.1588 10.92 10.7494 10.32 10.7494 9.6V1.32001C10.7494 0.600007 10.1588 0 9.45 0Z" fill="white" fill-opacity="0.1"/>
</svg>
