<svg width="17" height="17" viewBox="0 0 17 17" fill="none" xmlns="http://www.w3.org/2000/svg">
<path d="M7.79161 13.5C8.00411 13.5 8.14577 13.4291 8.28744 13.2875C8.57077 13.0041 8.57077 12.5791 8.28744 12.2958L4.74577 8.75413C4.46244 8.47079 4.03744 8.47079 3.75411 8.75413C3.47077 9.03746 3.47077 9.46246 3.75411 9.74579L7.29577 13.2875C7.43744 13.4291 7.57911 13.5 7.79161 13.5Z"/>
<path d="M4.24994 9.95833C4.46244 9.95833 4.60411 9.8875 4.74577 9.74583L8.28744 6.20417C8.57077 5.92083 8.57077 5.49583 8.28744 5.2125C8.00411 4.92917 7.57911 4.92917 7.29577 5.2125L3.75411 8.75417C3.47077 9.0375 3.47077 9.4625 3.75411 9.74583C3.89577 9.8875 4.03744 9.95833 4.24994 9.95833Z"/>
<path d="M4.76149 9.95829H12.9467C13.2536 9.95829 13.4583 9.67496 13.4583 9.24996C13.4583 8.82496 13.2536 8.54163 12.9467 8.54163H4.76149C4.45455 8.54163 4.24992 8.82496 4.24992 9.24996C4.24992 9.67496 4.45455 9.95829 4.76149 9.95829Z"/>
</svg>
