<svg width="17" height="18" viewBox="0 0 17 18" fill="none" xmlns="http://www.w3.org/2000/svg">
<path d="M9.20846 14C8.99596 14 8.85429 13.9291 8.71262 13.7875C8.42929 13.5041 8.42929 13.0791 8.71262 12.7958L12.2543 9.25413C12.5376 8.97079 12.9626 8.97079 13.246 9.25413C13.5293 9.53746 13.5293 9.96246 13.246 10.2458L9.70429 13.7875C9.56262 13.9291 9.42096 14 9.20846 14Z" fill="white"/>
<path d="M12.7501 10.4583C12.5376 10.4583 12.396 10.3875 12.2543 10.2458L8.71262 6.70417C8.42929 6.42083 8.42929 5.99583 8.71262 5.7125C8.99596 5.42917 9.42096 5.42917 9.70429 5.7125L13.246 9.25417C13.5293 9.5375 13.5293 9.9625 13.246 10.2458C13.1043 10.3875 12.9626 10.4583 12.7501 10.4583Z" fill="white"/>
<path d="M12.2385 10.4583H4.05332C3.74638 10.4583 3.54175 10.175 3.54175 9.74996C3.54175 9.32496 3.74638 9.04163 4.05332 9.04163H12.2385C12.5455 9.04163 12.7501 9.32496 12.7501 9.74996C12.7501 10.175 12.5455 10.4583 12.2385 10.4583Z" fill="white"/>
</svg>
