<svg width="24" height="24" viewBox="0 0 24 24" fill="none" xmlns="http://www.w3.org/2000/svg">
<path d="M14.6784 5.0784C15.2411 4.51572 16.0042 4.19961 16.8 4.19961C17.5957 4.19961 18.3589 4.51572 18.9216 5.0784C19.4843 5.64108 19.8004 6.40425 19.8004 7.2C19.8004 7.99576 19.4843 8.75892 18.9216 9.3216L17.4516 10.7904C17.2877 10.9602 17.1971 11.1876 17.1993 11.4236C17.2014 11.6596 17.2962 11.8852 17.4631 12.052C17.6301 12.2188 17.8559 12.3134 18.0918 12.3153C18.3278 12.3172 18.5551 12.2264 18.7248 12.0624L20.1936 10.5936C21.0679 9.68831 21.5517 8.47582 21.5408 7.21728C21.5299 5.95873 21.0251 4.75483 20.1351 3.86487C19.2451 2.97491 18.0412 2.4701 16.7827 2.45917C15.5242 2.44823 14.3117 2.93204 13.4064 3.8064L9.80637 7.4064C9.33879 7.87403 8.97287 8.43323 8.73157 9.04894C8.49028 9.66464 8.37881 10.3236 8.40416 10.9844C8.42951 11.6452 8.59114 12.2936 8.87889 12.889C9.16665 13.4844 9.57433 14.014 10.0764 14.4444C10.258 14.596 10.4919 14.67 10.7277 14.6504C10.9634 14.6309 11.1819 14.5193 11.336 14.3398C11.4901 14.1603 11.5673 13.9274 11.551 13.6914C11.5347 13.4554 11.4261 13.2353 11.2488 13.0788C10.9346 12.8099 10.6795 12.4789 10.4993 12.1067C10.3192 11.7345 10.2179 11.3291 10.2019 10.9158C10.1859 10.5026 10.2555 10.0906 10.4063 9.70553C10.5572 9.3205 10.786 8.9708 11.0784 8.6784L14.6784 5.0784Z" fill="#F0F8FF"/>
<path d="M13.9236 9.55556C13.742 9.40396 13.508 9.32995 13.2723 9.34953C13.0366 9.3691 12.818 9.48071 12.6639 9.66018C12.5098 9.83966 12.4326 10.0726 12.4489 10.3086C12.4653 10.5446 12.5738 10.7646 12.7512 10.9212C13.0653 11.1901 13.3205 11.521 13.5006 11.8932C13.6808 12.2655 13.7821 12.6709 13.7981 13.0841C13.8141 13.4973 13.7445 13.9094 13.5936 14.2944C13.4428 14.6795 13.214 15.0292 12.9216 15.3216L9.32159 18.9216C8.7589 19.4842 7.99574 19.8004 7.19999 19.8004C6.40423 19.8004 5.64107 19.4842 5.07839 18.9216C4.5157 18.3589 4.19959 17.5957 4.19959 16.8C4.19959 16.0042 4.5157 15.241 5.07839 14.6784L6.54839 13.2096C6.71225 13.0397 6.80286 12.8124 6.8007 12.5764C6.79854 12.3404 6.70378 12.1147 6.53683 11.9479C6.36989 11.7811 6.14411 11.6866 5.90813 11.6847C5.67215 11.6827 5.44485 11.7735 5.27519 11.9376L3.80639 13.4064C3.34794 13.8491 2.98226 14.3788 2.7307 14.9644C2.47914 15.55 2.34672 16.1799 2.34118 16.8172C2.33565 17.4546 2.45709 18.0866 2.69844 18.6765C2.93979 19.2664 3.29621 19.8024 3.74689 20.2531C4.19758 20.7037 4.73351 21.0602 5.32341 21.3015C5.91331 21.5429 6.54537 21.6643 7.18271 21.6588C7.82005 21.6532 8.44991 21.5208 9.03553 21.2692C9.62115 21.0177 10.1508 20.652 10.5936 20.1936L14.1936 16.5936C14.6612 16.1259 15.0271 15.5667 15.2684 14.951C15.5097 14.3353 15.6211 13.6764 15.5958 13.0156C15.5704 12.3548 15.4088 11.7063 15.1211 11.1109C14.8333 10.5155 14.4256 9.98599 13.9236 9.55556Z" fill="#F0F8FF"/>
</svg>
