<svg width="24" height="24" viewBox="0 0 24 24" fill="none" xmlns="http://www.w3.org/2000/svg">
<g clip-path="url(#clip0_152_53)">
<path d="M12 0C5.34545 0 0 5.34545 0 12C0 18.6545 5.34545 24 12 24C18.6545 24 24 18.6545 24 12C24 5.34545 18.6545 0 12 0ZM9.16364 13.3091L8.4 14.0727C8.18182 14.2909 7.85455 14.2909 7.63636 14.0727L6.27273 12.7091C5.4 11.8364 4.90909 10.6909 4.90909 9.43636C4.90909 6.92727 6.98182 4.85455 9.49091 4.85455C10.6909 4.85455 11.8909 5.34545 12.7636 6.21818L14.1273 7.58182C14.3455 7.8 14.3455 8.12727 14.1273 8.34545L13.3636 9.10909C13.1455 9.32727 12.8182 9.32727 12.6 9.10909L11.2364 7.74545C10.8 7.30909 10.2 7.03636 9.54545 7.03636C8.23636 7.03636 7.14545 8.12727 7.14545 9.43636C7.14545 10.0909 7.41818 10.6909 7.85455 11.1273L9.21818 12.4909C9.32727 12.7636 9.32727 13.0909 9.16364 13.3091ZM9.43636 10.2L10.2 9.43636C10.4182 9.21818 10.7455 9.21818 10.9636 9.43636L14.5636 13.0364C14.7818 13.2545 14.7818 13.5818 14.5636 13.8L13.8 14.5636C13.5818 14.7818 13.2545 14.7818 13.0364 14.5636L9.43636 10.9636C9.21818 10.7455 9.21818 10.4182 9.43636 10.2ZM14.5091 19.0909C13.3091 19.0909 12.1091 18.6 11.2364 17.7273L9.87273 16.3636C9.65455 16.1455 9.65455 15.8182 9.87273 15.6L10.6364 14.8364C10.8545 14.6182 11.1818 14.6182 11.4 14.8364L12.7636 16.2C13.2 16.6364 13.8 16.9091 14.4545 16.9091C15.7636 16.9091 16.8545 15.8182 16.8545 14.5091C16.8545 13.8545 16.5818 13.2545 16.1455 12.8182L14.7818 11.4545C14.5636 11.2364 14.5636 10.9091 14.7818 10.6909L15.5455 9.92727C15.7636 9.70909 16.0909 9.70909 16.3091 9.92727L17.6727 11.2909C18.5455 12.1636 19.0364 13.3091 19.0364 14.5636C19.0909 17.0182 17.0182 19.0909 14.5091 19.0909Z" fill="#F0F8FF"/>
</g>
<defs>
<clipPath id="clip0_152_53">
<rect width="24" height="24" fill="white"/>
</clipPath>
</defs>
</svg>
